<svg xmlns="http://www.w3.org/2000/svg" width="48" height="48"><circle fill-rule="evenodd" clip-rule="evenodd" fill="#E8C04F" cx="24" cy="24" r="24"/><path fill-rule="evenodd" clip-rule="evenodd" fill="#434141" d="M14 11h-1a1 1 0 0 0-1 1v26a1 1 0 0 0 1 1h1a1 1 0 0 0 1-1V12a1 1 0 0 0-1-1zm10 0h-1a1 1 0 0 0-1 1v26a1 1 0 0 0 1 1h1a1 1 0 0 0 1-1V12a1 1 0 0 0-1-1zm10 0h-1a1 1 0 0 0-1 1v26a1 1 0 0 0 1 1h1a1 1 0 0 0 1-1V12a1 1 0 0 0-1-1z"/><path fill-rule="evenodd" clip-rule="evenodd" fill="#FFF" d="M13.5 17a3.5 3.5 0 1 0 0 7 3.5 3.5 0 0 0 0-7zm10 10a3.5 3.5 0 1 0 0 7 3.5 3.5 0 0 0 0-7zm10-9a3.5 3.5 0 1 0 0 7 3.5 3.5 0 0 0 0-7z"/></svg>