<?xml version="1.0" encoding="utf-8"?>
<!-- Generator: Adobe Illustrator 17.0.0, SVG Export Plug-In . SVG Version: 6.00 Build 0)  -->
<!DOCTYPE svg PUBLIC "-//W3C//DTD SVG 1.1//EN" "http://www.w3.org/Graphics/SVG/1.1/DTD/svg11.dtd">
<svg version="1.1" id="Layer_1" xmlns="http://www.w3.org/2000/svg" xmlns:xlink="http://www.w3.org/1999/xlink" x="0px" y="0px"
	 width="48px" height="48px" viewBox="0 0 48 48" enable-background="new 0 0 48 48" xml:space="preserve">
<g id="BG_-_circle_77_">
	<g>
		<circle fill-rule="evenodd" clip-rule="evenodd" fill="#E8C04F" cx="24" cy="24" r="24"/>
	</g>
</g>
<g id="Rails">
	<g>
		<path fill-rule="evenodd" clip-rule="evenodd" fill="#434141" d="M14,11h-1c-0.552,0-1,0.448-1,1v26c0,0.552,0.448,1,1,1h1
			c0.552,0,1-0.448,1-1V12C15,11.448,14.552,11,14,11z M24,11h-1c-0.552,0-1,0.448-1,1v26c0,0.552,0.448,1,1,1h1
			c0.552,0,1-0.448,1-1V12C25,11.448,24.552,11,24,11z M34,11h-1c-0.552,0-1,0.448-1,1v26c0,0.552,0.448,1,1,1h1
			c0.552,0,1-0.448,1-1V12C35,11.448,34.552,11,34,11z"/>
	</g>
</g>
<g id="Knobs">
	<g>
		<path fill-rule="evenodd" clip-rule="evenodd" fill="#FFFFFF" d="M13.5,17c-1.933,0-3.5,1.567-3.5,3.5c0,1.933,1.567,3.5,3.5,3.5
			s3.5-1.567,3.5-3.5C17,18.567,15.433,17,13.5,17z M23.5,27c-1.933,0-3.5,1.567-3.5,3.5c0,1.933,1.567,3.5,3.5,3.5
			s3.5-1.567,3.5-3.5C27,28.567,25.433,27,23.5,27z M33.5,18c-1.933,0-3.5,1.567-3.5,3.5c0,1.933,1.567,3.5,3.5,3.5
			s3.5-1.567,3.5-3.5C37,19.567,35.433,18,33.5,18z"/>
	</g>
</g>
</svg>
