<svg xmlns="http://www.w3.org/2000/svg" width="48" height="48"><circle fill-rule="evenodd" clip-rule="evenodd" fill="#66A3C6" cx="416" cy="587" r="24"/><circle fill-rule="evenodd" clip-rule="evenodd" fill="#FFF" cx="416" cy="588" r="12.35"/><path fill-rule="evenodd" clip-rule="evenodd" fill="#414243" d="M416 575c-7.18 0-13 5.82-13 13s5.82 13 13 13 13-5.82 13-13-5.82-13-13-13zm0 19.5a1.626 1.626 0 1 1 .001-3.251A1.626 1.626 0 0 1 416 594.5zm0-6.5a4.875 4.875 0 0 0 0 9.75 9.75 9.75 0 0 1-9.75-9.75 9.75 9.75 0 0 1 9.75-9.75 4.875 4.875 0 0 1 0 9.75zm0-6.5a1.625 1.625 0 1 0 0 3.25 1.625 1.625 0 0 0 0-3.25z"/><circle fill-rule="evenodd" clip-rule="evenodd" fill="#66A3C6" cx="416" cy="587" r="24"/><circle fill-rule="evenodd" clip-rule="evenodd" fill="#FFF" cx="416" cy="588" r="12.35"/><path fill-rule="evenodd" clip-rule="evenodd" fill="#414243" d="M416 581.5a1.625 1.625 0 1 0 0 3.25 1.625 1.625 0 0 0 0-3.25zm0-6.5c-7.18 0-13 5.82-13 13s5.82 13 13 13 13-5.82 13-13-5.82-13-13-13zm0 19.5a1.626 1.626 0 1 1 .001-3.251A1.626 1.626 0 0 1 416 594.5zm0-6.5a4.875 4.875 0 0 0 0 9.75 9.75 9.75 0 0 1-9.75-9.75 9.75 9.75 0 0 1 9.75-9.75 4.875 4.875 0 0 1 0 9.75z"/><circle fill="#9D9ABF" cx="24" cy="24" r="24"/><path fill="#FCFCFC" d="M33.288 22.215c.012-.17.02-.34.02-.513 0-4.126-2.396-8.034-7.448-8.034-4.167 0-5.651 2.39-6.811 5.008a3.705 3.705 0 0 0-2.411-.888 3.736 3.736 0 0 0-3.676 4.381A5.903 5.903 0 0 0 8 28.002c0 3.262 2.636 5.906 5.888 5.906h18.221c3.252 0 5.888-2.645 5.888-5.906a5.906 5.906 0 0 0-4.709-5.787z"/><path fill="#74B8DF" d="M23 19l-5 7v1h2v5h6v-5h2v-1z"/></svg>