<?xml version="1.0" encoding="utf-8"?>
<!-- Generator: Adobe Illustrator 17.0.0, SVG Export Plug-In . SVG Version: 6.00 Build 0)  -->
<!DOCTYPE svg PUBLIC "-//W3C//DTD SVG 1.1//EN" "http://www.w3.org/Graphics/SVG/1.1/DTD/svg11.dtd">
<svg version="1.1" id="Layer_1" xmlns="http://www.w3.org/2000/svg" xmlns:xlink="http://www.w3.org/1999/xlink" x="0px" y="0px"
	 width="48px" height="48px" viewBox="0 0 48 48" enable-background="new 0 0 48 48" xml:space="preserve">
<g id="BG_-_circle_3_">
	<g>
		<circle fill-rule="evenodd" clip-rule="evenodd" fill="#66A3C6" cx="416" cy="587" r="24"/>
	</g>
</g>
<g id="Base_1_">
	<g>
		<circle fill-rule="evenodd" clip-rule="evenodd" fill="#FFFFFF" cx="416" cy="588" r="12.35"/>
	</g>
</g>
<g id="Yin_Yang">
	<g>
		<path fill-rule="evenodd" clip-rule="evenodd" fill="#414243" d="M416,575c-7.18,0-13,5.82-13,13s5.82,13,13,13s13-5.82,13-13
			S423.18,575,416,575z M416,594.5c-0.897,0-1.625-0.728-1.625-1.625c0-0.897,0.728-1.625,1.625-1.625s1.625,0.728,1.625,1.625
			C417.625,593.772,416.897,594.5,416,594.5z M416,588c-2.692,0-4.875,2.183-4.875,4.875s2.183,4.875,4.875,4.875
			c-5.385,0-9.75-4.365-9.75-9.75c0-5.385,4.365-9.75,9.75-9.75c2.692,0,4.875,2.183,4.875,4.875
			C420.875,585.817,418.692,588,416,588z M416,581.5c-0.897,0-1.625,0.727-1.625,1.625c0,0.897,0.728,1.625,1.625,1.625
			s1.625-0.728,1.625-1.625C417.625,582.227,416.897,581.5,416,581.5z"/>
	</g>
</g>
<g id="BG_-_circle_1_">
	<g>
		<circle fill-rule="evenodd" clip-rule="evenodd" fill="#66A3C6" cx="416" cy="587" r="24"/>
	</g>
</g>
<g id="Base_3_">
	<g>
		<circle fill-rule="evenodd" clip-rule="evenodd" fill="#FFFFFF" cx="416" cy="588" r="12.35"/>
	</g>
</g>
<g id="Yin_Yang_2_">
	<g>
		<path fill-rule="evenodd" clip-rule="evenodd" fill="#414243" d="M416,581.5c-0.897,0-1.625,0.727-1.625,1.625
			c0,0.897,0.728,1.625,1.625,1.625s1.625-0.728,1.625-1.625C417.625,582.227,416.897,581.5,416,581.5z M416,575
			c-7.18,0-13,5.82-13,13s5.82,13,13,13s13-5.82,13-13S423.18,575,416,575z M416,594.5c-0.897,0-1.625-0.728-1.625-1.625
			c0-0.897,0.728-1.625,1.625-1.625s1.625,0.728,1.625,1.625C417.625,593.772,416.897,594.5,416,594.5z M416,588
			c-2.692,0-4.875,2.183-4.875,4.875s2.183,4.875,4.875,4.875c-5.385,0-9.75-4.365-9.75-9.75c0-5.385,4.365-9.75,9.75-9.75
			c2.692,0,4.875,2.183,4.875,4.875C420.875,585.817,418.692,588,416,588z"/>
	</g>
</g>
<g id="BG_-_circle_22_">
	<g>
		<circle fill="#9D9ABF" cx="24" cy="24" r="24"/>
	</g>
</g>
<g id="Cloud_1_">
	<g>
		<path fill="#FCFCFC" d="M33.288,22.215c0.012-0.17,0.02-0.34,0.02-0.513c0-4.126-2.396-8.034-7.448-8.034
			c-4.167,0-5.651,2.39-6.811,5.008c-0.65-0.554-1.492-0.888-2.411-0.888c-2.062,0-3.732,1.675-3.732,3.742
			c0,0.218,0.02,0.432,0.056,0.639c-2.812,0.446-4.962,2.888-4.962,5.833c0,3.262,2.636,5.906,5.888,5.906h18.221
			c3.252,0,5.888-2.645,5.888-5.906C37.995,25.146,35.975,22.764,33.288,22.215z"/>
	</g>
</g>
<g id="Arrow_1_">
	<g>
		<polygon fill="#74B8DF" points="23,19 18,26 18,27 20,27 20,32 26,32 26,27 28,27 28,26 		"/>
	</g>
</g>
</svg>
