<svg id="Layer_1" xmlns="http://www.w3.org/2000/svg" viewBox="0 0 507.4 507.4"><style>.st0{fill:#922169}.st1{fill:#ed3784}.st2{fill:#f59ec1}.st3{fill:#0f76bc}.st7{fill:#9bc1dd}.st8{fill:#e9e9ea}.st9{opacity:.56;fill:#2f2e73}.st10{fill:#010101}.st11{opacity:.34;fill:#0f76bc}</style><circle cx="253.7" cy="253.7" r="252.2"/><path class="st0" d="M201 335.9l2.2 166.1c16.8 3.4 34.1 5.1 51.9 5s35.1-2.2 51.8-6l-2.2-166.1-51.9.5-51.8.5z"/><path class="st1" d="M253 342.7l-40.1.4 1.3 131.1 22.6-14.2 17.5 13.8 17.2-14.1 22.9 13.7-1.4-131.1z"/><path class="st2" d="M254 342.4h-27v101.2l14-9.7 13 9.7 13.1-9.7 14 9.7V342.4z"/><path class="st0" d="M347.2 393.3h-29.6v105.1c21-5.6 40.8-13.9 59.2-24.4v-80.6h-29.6zM158 393.3h-29.6v79c18.3 10.9 38.2 19.5 59.2 25.3V393.3H158z"/><path class="st1" d="M346.5 370l-22.9.2.7 74.7 12.9-8 10 7.8 9.8-8 13.1 7.8-.8-74.8z"/><path class="st2" d="M347.2 370.6h-15.4v57.7l8-5.6 7.4 5.6 7.5-5.6 8 5.6v-57.7z"/><path class="st1" d="M158 370.6h-22.9v74.7l13-7.9 9.9 7.9 9.9-7.9 13 7.9v-74.7z"/><path class="st2" d="M158 370.6h-15.4v57.7l7.9-5.6 7.5 5.6 7.5-5.6 7.9 5.6v-57.7z"/><path class="st3" d="M158.4 128.5v-.2s-.1 0-.2.1c-.1-.1-.2-.1-.2-.1v.2c-3.2 1.6-29 15.8-29 43.6v221.3h58.4V172.1c0-27.8-25.8-42-29-43.6z"/><path d="M347 128.5v-.2s-.1 0-.2.1c-.1-.1-.2-.1-.2-.1v.2c-3.2 1.6-29 15.8-29 43.6v221.3H376V172.1c0-27.8-25.8-42-29-43.6z" fill="#2f2e73"/><path d="M253.8 1.4s-51.9 24.9-51.9 77.2v215.3h51.9V1.4z" fill="#fcbe52"/><path d="M253.8 1.4s51.8 24.9 51.8 77.2v215.3h-51.9l.1-292.5z" fill="#e08444"/><path class="st7" d="M439.7 329.7l-103.1-73.8-33.6-57-29.2-115.5L254 71.7v309.9h169.6l16.2 41.6z"/><path class="st8" d="M234.3 83.4l-29.2 115.5-33.6 57-103.1 73.8v91.8l16.1-39.9H254V71.7z"/><path class="st9" d="M336.6 255.9l-30.7 125.7h-24.8L303 198.9z"/><path class="st10" d="M254 143.3l17.6 5.2 25.7 27.7 5.7 22.7-32.9-21.5H254zM254 101h14.7l11.5 7.8-6.4-25.4L254 71.7z"/><path class="st11" d="M171.5 255.9l30.7 125.7H227l-21.9-182.7z"/><path class="st3" d="M254 143.3l-17.5 5.2-25.7 27.7-5.7 22.7 32.9-21.5h16zM254 101h-14.6l-11.5 7.8 6.4-25.4L254 71.7z"/><path class="st7" d="M254 381.6h51.9v11.7H254z"/><path class="st9" d="M254 381.6h51.9v11.7H254z"/><path class="st8" d="M202.2 381.6h51.9v11.7h-51.9z"/><path class="st11" d="M202.2 381.6h51.9v11.7h-51.9z"/><g><path class="st9" d="M423.6 381.6l16.2 41.6-.1-93.5z"/></g><g><path class="st11" d="M68.4 329.7v93.8l16.1-41.9z"/></g></svg>