<?xml version="1.0" encoding="utf-8"?>
<!-- Generator: Adobe Illustrator 17.0.0, SVG Export Plug-In . SVG Version: 6.00 Build 0)  -->
<!DOCTYPE svg PUBLIC "-//W3C//DTD SVG 1.1//EN" "http://www.w3.org/Graphics/SVG/1.1/DTD/svg11.dtd">
<svg version="1.1" id="Layer_1" xmlns="http://www.w3.org/2000/svg" xmlns:xlink="http://www.w3.org/1999/xlink" x="0px" y="0px"
	 width="351.881px" height="351.882px" viewBox="0 0 351.881 351.882" enable-background="new 0 0 351.881 351.882"
	 xml:space="preserve">
<radialGradient id="SVGID_1_" cx="177.274" cy="175.9406" r="179.1418" gradientUnits="userSpaceOnUse">
	<stop  offset="0" style="stop-color:#191919"/>
	<stop  offset="1" style="stop-color:#2E2E32"/>
</radialGradient>
<circle fill="url(#SVGID_1_)" cx="175.941" cy="175.941" r="175.941"/>
<path fill="#FF9843" d="M176.56,36.823c-16.724,2.843-29.506,33.15-29.506,51.771v161.951h29.506h29.506V88.594
	C206.066,69.973,193.284,39.666,176.56,36.823z"/>
<polygon fill="#2E2E32" points="123.642,250.655 122.188,250.596 121.798,257.703 123.365,257.889 "/>
<path fill="#FF7900" d="M176.56,36.823v213.722h29.506V88.594C206.066,69.973,193.284,39.666,176.56,36.823z"/>
<polygon fill="#2E2E32" points="228.611,250.655 230.066,250.596 230.456,257.703 228.889,257.889 "/>
<path fill="#BBB0AA" d="M222.77,108.812c-6.209,1.055-10.955,12.308-10.955,19.222v146.833h10.955h10.955V128.034
	C233.725,121.12,228.979,109.867,222.77,108.812z"/>
<path fill="#BBB0AA" d="M129.756,108.812c-6.21,1.055-10.955,12.308-10.955,19.222v146.833h10.955h10.955V128.034
	C140.712,121.12,135.966,109.867,129.756,108.812z"/>
<path d="M168.346,277.288c-3.36,5.669-5.537,14.584-5.537,24.643h28.098c0-10.059-2.177-18.974-5.537-24.643H168.346z"/>
<path d="M182.395,269.759c-3.36,5.669-5.537,14.584-5.537,24.643h28.098c0-10.059-2.177-18.974-5.537-24.643H182.395z"/>
<path d="M153.592,269.759c-3.36,5.669-5.537,14.584-5.537,24.643h28.098c0-10.059-2.177-18.974-5.537-24.643H153.592z"/>
<path fill="#A99C92" d="M129.756,108.812v166.056h10.955V128.034C140.712,121.12,135.966,109.867,129.756,108.812z"/>
<path fill="#E6E7E8" d="M146.783,189.611c1.347-4.69,2.507-11.153,3.564-15.911c1.569-7.146,2.848-14.342,3.991-21.573
	c1.108-7.077,2.08-14.172,3.018-21.266c0.887-6.651,1.722-13.301,2.677-19.935c0.641-4.502,1.326,1.007,2.148-3.467v161.483
	l-74.762-6.528C83.6,224.963,137.472,222.234,146.783,189.611z"/>
<path fill="#A99C92" d="M222.77,108.812v166.056h10.955V128.034C233.725,121.12,228.979,109.867,222.77,108.812z"/>
<path fill="#E6E7E8" d="M206.337,189.611c-1.347-4.69-2.507-11.153-3.564-15.911c-1.569-7.146-2.848-14.342-3.991-21.573
	c-1.108-7.077-2.08-14.172-3.018-21.266c-0.887-6.651-1.723-13.301-2.677-19.935c-0.641-4.502-1.326,1.007-2.148-3.467v161.483
	l74.762-6.528C269.52,224.963,215.648,222.234,206.337,189.611z"/>
<path d="M265.894,256.814l-65.114,2.271l-0.294-8.199h64.483C265.46,252.752,265.775,254.724,265.894,256.814z"/>
<path d="M87.288,256.814l65.114,2.271l0.294-8.199H88.213C87.722,252.752,87.407,254.724,87.288,256.814z"/>
<g>
	<path fill="#FFFFFF" d="M204.948,277.288c0.006-1.627,0.009-3.259,0.009-4.896c0-109.887-12.738-198.968-28.451-198.968
		c-15.713,0-28.451,89.081-28.451,198.968c0,1.637,0.003,3.268,0.009,4.896H204.948z"/>
	<path fill="#E6E7E8" d="M204.948,277.288c0.006-1.627,0.009-3.259,0.009-4.896c0-109.887-12.738-198.968-28.451-198.968v203.864
		H204.948z"/>
	<path d="M185.856,111.073c0.032,0.009,0.063,0.022,0.093,0.031c0.052-0.631,0.029-1.514-0.068-2.641
		c-0.202-2.365-0.733-3.642-1.597-3.837c-0.976-0.399-3.499-0.659-7.57-0.788c-0.07-0.004-0.139-0.004-0.209-0.007
		c-4.192,0.126-6.785,0.39-7.779,0.794c-0.864,0.195-1.395,1.473-1.597,3.837c-0.096,1.127-0.12,2.01-0.068,2.641
		c0.03-0.009,0.061-0.022,0.093-0.031c0.394-0.097,0.799-0.189,1.217-0.273c2.013-0.405,4.297-0.628,6.852-0.672
		c0.055-0.004,0.111-0.004,0.166-0.004l1.255-0.012c0.023,0,0.046,0,0.07,0c2.993,0,5.636,0.229,7.925,0.688
		C185.057,110.884,185.462,110.975,185.856,111.073L185.856,111.073z"/>
	<path opacity="0.3" fill="#2E2E32" d="M152.586,164.63c-2.867,31.056-4.531,68.048-4.531,107.762c0,1.636,0.003,3.268,0.009,4.896
		h4.522V164.63z"/>
	<path opacity="0.3" fill="#2E2E32" d="M200.426,164.63c2.867,31.056,4.531,68.048,4.531,107.762c0,1.636-0.003,3.268-0.009,4.896
		h-4.522V164.63z"/>
	<path d="M188.05,90.497c-3.528-10.968-7.434-17.073-11.544-17.073c-4.11,0-8.016,6.105-11.544,17.073H188.05z"/>
</g>
<path opacity="0.4" fill="#EDC233" d="M216.049,276.133l-22.252,74.852c18.862-1.901,36.84-6.79,53.465-14.171l-18.394-60.68
	H216.049z"/>
<path opacity="0.4" fill="#EDC233" d="M124.422,276.097l-18.155,61.438c16.771,7.241,34.89,11.943,53.878,13.633l-22.905-75.071
	H124.422z"/>
<path opacity="0.2" fill="#405DB5" d="M160.036,351.158c5.154,0.462,10.368,0.712,15.64,0.72c1.278-0.001,2.545-0.029,3.818-0.042
	c4.763-0.094,9.481-0.372,14.145-0.837l-8.874-47.899H168.94L160.036,351.158z"/>
<rect x="172.151" y="248.376" fill="#FFFFFF" stroke="#C0C0C1" stroke-width="2" stroke-miterlimit="10" width="9.414" height="43.826"/>
</svg>
