<?xml version="1.0" encoding="utf-8"?>
<!-- Generator: Adobe Illustrator 17.0.0, SVG Export Plug-In . SVG Version: 6.00 Build 0)  -->
<!DOCTYPE svg PUBLIC "-//W3C//DTD SVG 1.1//EN" "http://www.w3.org/Graphics/SVG/1.1/DTD/svg11.dtd">
<svg version="1.1" id="Layer_1" xmlns="http://www.w3.org/2000/svg" xmlns:xlink="http://www.w3.org/1999/xlink" x="0px" y="0px"
	 width="48px" height="48px" viewBox="0 0 48 48" enable-background="new 0 0 48 48" xml:space="preserve">
<g id="BG_-_circle_87_">
	<g>
		<circle fill="#D2514B" cx="24" cy="24" r="24"/>
	</g>
</g>
<g id="Purple_1_">
	<g>
		<path fill="#706BA1" d="M33.598,17c-4.201,0-5.475,2.368-5.402,5.917c0.052,2.537,5.402,8.876,5.402,8.876S39,25.261,39,22.917
			C39,19.367,37.8,17,33.598,17z"/>
	</g>
</g>
<g id="Red_5_">
	<g>
		<path fill="#5BA5CF" d="M14.475,17C10.273,17,9,19.368,9.073,22.917c0.052,2.537,5.402,8.876,5.402,8.876s5.402-6.532,5.402-8.876
			C19.877,19.367,18.677,17,14.475,17z"/>
	</g>
</g>
<g id="Yellow_2_">
	<g>
		<path fill="#E8C04F" d="M24.289,18.508c-5.252,0-6.619,2.96-6.528,7.397C17.825,29.077,24.326,37,24.326,37
			s6.603-8.294,6.603-11.224C30.929,21.338,29.541,18.508,24.289,18.508z"/>
	</g>
</g>
<g id="Holes_4_" opacity="0.4">
	<g>
		<path d="M15,20c-1.105,0-2,0.896-2,2c0,1.105,0.895,2,2,2s2-0.895,2-2C17,20.896,16.105,20,15,20z M34,20c-1.105,0-2,0.896-2,2
			c0,1.105,0.895,2,2,2s2-0.895,2-2C36,20.896,35.105,20,34,20z M24.5,22c-1.381,0-2.5,1.119-2.5,2.5s1.119,2.5,2.5,2.5
			s2.5-1.119,2.5-2.5S25.881,22,24.5,22z"/>
	</g>
</g>
</svg>
