<svg xmlns="http://www.w3.org/2000/svg" width="48" height="48"><circle fill="#D2514B" cx="24" cy="24" r="24"/><path fill="#706BA1" d="M33.598 17c-4.201 0-5.475 2.368-5.402 5.917.052 2.537 5.402 8.876 5.402 8.876S39 25.261 39 22.917C39 19.367 37.8 17 33.598 17z"/><path fill="#5BA5CF" d="M14.475 17C10.273 17 9 19.368 9.073 22.917c.052 2.537 5.402 8.876 5.402 8.876s5.402-6.532 5.402-8.876c0-3.55-1.2-5.917-5.402-5.917z"/><path fill="#E8C04F" d="M24.289 18.508c-5.252 0-6.619 2.96-6.528 7.397C17.825 29.077 24.326 37 24.326 37s6.603-8.294 6.603-11.224c0-4.438-1.388-7.268-6.64-7.268z"/><path d="M15 20a2 2 0 1 0 0 4 2 2 0 0 0 0-4zm19 0a2 2 0 1 0 0 4 2 2 0 0 0 0-4zm-9.5 2a2.5 2.5 0 1 0 0 5 2.5 2.5 0 0 0 0-5z" opacity=".4"/></svg>