<?xml version="1.0" encoding="utf-8"?>
<!-- Generator: Adobe Illustrator 17.0.0, SVG Export Plug-In . SVG Version: 6.00 Build 0)  -->
<!DOCTYPE svg PUBLIC "-//W3C//DTD SVG 1.0//EN" "http://www.w3.org/TR/2001/REC-SVG-20010904/DTD/svg10.dtd">
<svg version="1.0" id="Layer_1" xmlns="http://www.w3.org/2000/svg" xmlns:xlink="http://www.w3.org/1999/xlink" x="0px" y="0px"
	 width="48px" height="48px" viewBox="0 0 48 48" enable-background="new 0 0 48 48" xml:space="preserve">
<g id="BG_-_circle_83_">
	<g>
		<circle fill-rule="evenodd" clip-rule="evenodd" fill="#66A3C6" cx="24" cy="24" r="24"/>
	</g>
</g>
<g>
	<defs>
		<circle id="SVGID_1_" cx="24" cy="24" r="24"/>
	</defs>
	<clipPath id="SVGID_2_">
		<use xlink:href="#SVGID_1_"  overflow="visible"/>
	</clipPath>
	<g id="Jet_Stream" opacity="0.2902" clip-path="url(#SVGID_2_)">
		<g>
			<path fill-rule="evenodd" clip-rule="evenodd" fill="#FFFFFF" d="M39.358,21.684c0,0-7.531,2.059-11.448,6.431
				c-3.872,4.321-4.385,12.24-4.385,12.24L36,50l14.438-18.75L39.358,21.684z"/>
		</g>
	</g>
	<g id="Flame" opacity="0.702" clip-path="url(#SVGID_2_)">
		<g>
			<path fill-rule="evenodd" clip-rule="evenodd" fill="#FFFFFF" d="M36.477,32.109c-0.351-0.451-1.892-2.605-3.978-0.538
				c-2.087,2.067,0.176,3.749,0.501,3.983c0.612,0.441,12.574,8.889,12.574,8.889S37.04,32.832,36.477,32.109z"/>
		</g>
	</g>
</g>
<g id="Wings">
	<g>
		<path fill-rule="evenodd" clip-rule="evenodd" fill="#3E7493" d="M23.525,40.356l2.87-7.755l-8.573-7.013L23.525,40.356z
			 M25.767,17.994l6.888,7.867l6.703-4.176L25.767,17.994z"/>
	</g>
</g>
<g id="Body_15_">
	<g>
		<path fill-rule="evenodd" clip-rule="evenodd" fill="#F8F8F8" d="M32.759,25.374c0,0-2.182-5.915-10.579-10.567
			c-4.814-2.667-9.737-2.532-9.737-2.532l-0.967,1.019c0,0,0.831,5.248,3.341,9.576c4.943,8.522,11.294,9.799,11.294,9.799
			s2.365,0.317,4.981-2.217C33.349,28.266,32.759,25.374,32.759,25.374z"/>
	</g>
</g>
<g id="Window_1_">
	<g>
		<circle fill-rule="evenodd" clip-rule="evenodd" fill="#5CA3CB" cx="19.736" cy="19.912" r="2.105"/>
	</g>
</g>
</svg>
