<svg version="1" xmlns="http://www.w3.org/2000/svg" xmlns:xlink="http://www.w3.org/1999/xlink" width="48" height="48"><circle fill-rule="evenodd" clip-rule="evenodd" fill="#66A3C6" cx="24" cy="24" r="24"/><defs><circle id="a" cx="24" cy="24" r="24"/></defs><clipPath id="b"><use xlink:href="#a" overflow="visible"/></clipPath><g opacity=".29" clip-path="url(#b)"><path fill-rule="evenodd" clip-rule="evenodd" fill="#FFF" d="M39.358 21.684s-7.531 2.059-11.448 6.431c-3.872 4.321-4.385 12.24-4.385 12.24L36 50l14.438-18.75-11.08-9.566z"/></g><g opacity=".702" clip-path="url(#b)"><path fill-rule="evenodd" clip-rule="evenodd" fill="#FFF" d="M36.477 32.109c-.351-.451-1.892-2.605-3.978-.538-2.087 2.067.176 3.749.501 3.983.612.441 12.574 8.889 12.574 8.889s-8.534-11.611-9.097-12.334z"/></g><g><path fill-rule="evenodd" clip-rule="evenodd" fill="#3E7493" d="M23.525 40.356l2.87-7.755-8.573-7.013 5.703 14.768zm2.242-22.362l6.888 7.867 6.703-4.176-13.591-3.691z"/></g><g><path fill-rule="evenodd" clip-rule="evenodd" fill="#F8F8F8" d="M32.759 25.374s-2.182-5.915-10.579-10.567c-4.814-2.667-9.737-2.532-9.737-2.532l-.967 1.019s.831 5.248 3.341 9.576c4.943 8.522 11.294 9.799 11.294 9.799s2.365.317 4.981-2.217c2.257-2.186 1.667-5.078 1.667-5.078z"/></g><g><circle fill-rule="evenodd" clip-rule="evenodd" fill="#5CA3CB" cx="19.736" cy="19.912" r="2.105"/></g></svg>