<svg xmlns="http://www.w3.org/2000/svg" width="48" height="48"><circle fill="#9D9ABF" cx="24" cy="24" r="24"/><path fill="#FFF" d="M34.24 19.062c0-5.85-4.743-10.593-10.594-10.593s-10.593 4.743-10.593 10.593a10.57 10.57 0 0 0 3.774 8.102h-.036s1.549 1.517 1.874 2.492c.298.889.46 2.344.46 2.344h8.75s.323-1.438.625-2.345c.32-.961 2.001-2.492 2.001-2.492h-.036a10.565 10.565 0 0 0 3.775-8.101z" opacity=".451"/><path fill="#818080" d="M25 25l-1.469 1L22 25h-1v9h1v-8l1.531 1L25 26v8h1v-9z"/><path fill="#F1F1F1" d="M19 31l1 8h7l1-8z"/><path fill="#818080" d="M21 41h2v-2h-2v2zm3-2v2h2v-2h-2z"/></svg>