<?xml version="1.0" encoding="utf-8"?>
<!-- Generator: Adobe Illustrator 17.0.0, SVG Export Plug-In . SVG Version: 6.00 Build 0)  -->
<!DOCTYPE svg PUBLIC "-//W3C//DTD SVG 1.1//EN" "http://www.w3.org/Graphics/SVG/1.1/DTD/svg11.dtd">
<svg version="1.1" id="Layer_1" xmlns="http://www.w3.org/2000/svg" xmlns:xlink="http://www.w3.org/1999/xlink" x="0px" y="0px"
	 width="48px" height="48px" viewBox="0 0 48 48" enable-background="new 0 0 48 48" xml:space="preserve">
<g id="BG_-_circle_94_">
	<g>
		<circle fill="#9D9ABF" cx="24" cy="24" r="24"/>
	</g>
</g>
<g id="Glass_6_" opacity="0.451">
	<g>
		<path fill="#FFFFFF" d="M34.24,19.062c0-5.85-4.743-10.593-10.594-10.593s-10.593,4.743-10.593,10.593
			c0,3.252,1.468,6.158,3.774,8.102h-0.036c0,0,1.549,1.517,1.874,2.492C18.963,30.545,19.125,32,19.125,32h8.75
			c0,0,0.323-1.438,0.625-2.345c0.32-0.961,2.001-2.492,2.001-2.492h-0.036C32.772,25.22,34.24,22.313,34.24,19.062z"/>
	</g>
</g>
<g id="Inner_14_">
	<g>
		<polygon fill="#818080" points="25,25 23.531,26 22,25 21,25 21,34 22,34 22,26 23.531,27 25,26 25,34 26,34 26,25 		"/>
	</g>
</g>
<g id="Base_12_">
	<g>
		<polygon fill="#F1F1F1" points="19,31 20,39 27,39 28,31 		"/>
	</g>
</g>
<g id="Connectors">
	<g>
		<path fill="#818080" d="M21,41h2v-2h-2V41z M24,39v2h2v-2H24z"/>
	</g>
</g>
</svg>
