<?xml version="1.0" encoding="utf-8"?>
<!-- Generator: Adobe Illustrator 19.1.0, SVG Export Plug-In . SVG Version: 6.00 Build 0)  -->
<svg version="1.1" id="Layer_1" xmlns="http://www.w3.org/2000/svg" xmlns:xlink="http://www.w3.org/1999/xlink" x="0px" y="0px"
	 viewBox="0 0 507.4 507.4" style="enable-background:new 0 0 507.4 507.4;" xml:space="preserve">
<style type="text/css">
	.st0{fill:#922169;}
	.st1{fill:#ED3784;}
	.st2{fill:#F59EC1;}
	.st3{fill:#0F76BC;}
	.st4{fill:#2F2E73;}
	.st5{fill:#FCBE52;}
	.st6{fill:#E08444;}
	.st7{fill:#9BC1DD;}
	.st8{fill:#E9E9EA;}
	.st9{opacity:0.56;fill:#2F2E73;}
	.st10{fill:#010101;}
	.st11{opacity:0.34;fill:#0F76BC;}
</style>
<g>
	<circle cx="253.7" cy="253.7" r="252.2"/>
	<path class="st0" d="M201,335.9l2.2,166.1c16.8,3.4,34.1,5.1,51.9,5s35.1-2.2,51.8-6l-2.2-166.1l-51.9,0.5L201,335.9z"/>
	<polygon class="st1" points="253,342.7 212.9,343.1 214.2,474.2 236.8,460 254.3,473.8 271.5,459.7 294.4,473.4 293,342.3 	"/>
	<polygon class="st2" points="254,342.4 227,342.4 227,443.6 241,433.9 254,443.6 267.1,433.9 281.1,443.6 281.1,342.4 	"/>
	<g>
		<path class="st0" d="M347.2,393.3h-29.6v105.1c21-5.6,40.8-13.9,59.2-24.4v-80.6H347.2z"/>
		<path class="st0" d="M158,393.3h-29.6v79c18.3,10.9,38.2,19.5,59.2,25.3V393.3H158z"/>
	</g>
	<polygon class="st1" points="346.5,370 323.6,370.2 324.3,444.9 337.2,436.9 347.2,444.7 357,436.7 370.1,444.5 369.3,369.7 	"/>
	<polygon class="st2" points="347.2,370.6 331.8,370.6 331.8,428.3 339.8,422.7 347.2,428.3 354.7,422.7 362.7,428.3 362.7,370.6 	
		"/>
	<polygon class="st1" points="158,370.6 135.1,370.6 135.1,445.3 148.1,437.4 158,445.3 167.9,437.4 180.9,445.3 180.9,370.6 	"/>
	<polygon class="st2" points="158,370.6 142.6,370.6 142.6,428.3 150.5,422.7 158,428.3 165.5,422.7 173.4,428.3 173.4,370.6 	"/>
	<path class="st3" d="M158.4,128.5l0-0.2c0,0-0.1,0-0.2,0.1c-0.1-0.1-0.2-0.1-0.2-0.1l0,0.2c-3.2,1.6-29,15.8-29,43.6
		c0,29.6,0,221.3,0,221.3h29h0.4h29c0,0,0-191.7,0-221.3C187.4,144.3,161.6,130.1,158.4,128.5z"/>
	<path class="st4" d="M347,128.5l0-0.2c0,0-0.1,0-0.2,0.1c-0.1-0.1-0.2-0.1-0.2-0.1v0.2c-3.2,1.6-29,15.8-29,43.6
		c0,29.6,0,221.3,0,221.3h29h0.4h29c0,0,0-191.7,0-221.3C376,144.3,350.2,130.1,347,128.5z"/>
	<path class="st5" d="M253.8,1.4c0,0-51.9,24.9-51.9,77.2s0,215.3,0,215.3h51.9L253.8,1.4z"/>
	<path class="st6" d="M253.8,1.4c0,0,51.8,24.9,51.8,77.2s0,215.3,0,215.3h-51.9L253.8,1.4z"/>
	<g>
		<polygon class="st7" points="439.7,329.7 336.6,255.9 303,198.9 273.8,83.4 254,71.7 254,381.6 423.6,381.6 439.8,423.2 		"/>
		<g>
			<polygon class="st8" points="234.3,83.4 205.1,198.9 171.5,255.9 68.4,329.7 68.4,421.5 84.5,381.6 254,381.6 254,71.7 			"/>
		</g>
	</g>
	<polygon class="st9" points="336.6,255.9 305.9,381.6 281.1,381.6 303,198.9 	"/>
	<polygon class="st10" points="254,143.3 271.6,148.5 297.3,176.2 303,198.9 270.1,177.4 254,177.4 	"/>
	<polygon class="st10" points="254,101 268.7,101 280.2,108.8 273.8,83.4 254,71.7 	"/>
	<polygon class="st11" points="171.5,255.9 202.2,381.6 227,381.6 205.1,198.9 	"/>
	<polygon class="st3" points="254,143.3 236.5,148.5 210.8,176.2 205.1,198.9 238,177.4 254,177.4 	"/>
	<polygon class="st3" points="254,101 239.4,101 227.9,108.8 234.3,83.4 254,71.7 	"/>
	<rect x="254" y="381.6" class="st7" width="51.9" height="11.7"/>
	<rect x="254" y="381.6" class="st9" width="51.9" height="11.7"/>
	<rect x="202.2" y="381.6" class="st8" width="51.9" height="11.7"/>
	<rect x="202.2" y="381.6" class="st11" width="51.9" height="11.7"/>
	<g>
		<line class="st9" x1="439.8" y1="423.2" x2="439.8" y2="423.2"/>
		<polygon class="st9" points="423.6,381.6 439.8,423.2 439.7,329.7 		"/>
	</g>
	<g>
		<polygon class="st11" points="68.4,329.7 68.4,423.5 84.5,381.6 		"/>
	</g>
</g>
</svg>
