<svg xmlns="http://www.w3.org/2000/svg" width="48" height="48"><circle fill="#66A3C6" cx="24" cy="24" r="24"/><path fill="#EACE80" d="M12 37l8-2V13l-8 2v22zm15-23v24l9-2V13l-9 1z"/><path fill="#D0A939" d="M20 13v22l7 3V14z"/><path d="M27 16l-7-1-7 2v18l7-2 7 3 8-1V15l-8 1zm7 18l-7 1-7-3-6 2V18l6-2 7 1 7-1v18z" opacity=".161"/><path fill="#947725" d="M30 21v1h1v-1h-1zm3 3v-1h-1v1h1zm-3 0h1v-1h-1v1zm1-2v1h1v-1h-1zm2-1h-1v1h1v-1zm-2 6h1v-2h-1v2zm-6.806 1.633l1.396 1.433.717-.698-1.396-1.432-.717.697zm-1.643-3.506l.421 1.956.978-.21-.42-1.956-.979.21zm-2.363-2.475l1.422 1.406.703-.711-1.422-1.406-.703.711zm-4.052.443l.521.854 1.707-1.042-.522-.854-1.706 1.042zm-1.577 3.783l.979.202.404-1.958-.979-.202-.404 1.958zm14.53 2.671l.828.56 1.12-1.657-.829-.56-1.119 1.657z"/></svg>