<svg xmlns="http://www.w3.org/2000/svg" width="1920" height="1080"><path d="M-28,1328L-224,1331L189,1335Z" fill="#a37ca6" stroke="#a37ca6" stroke-width="1.51"/><path d="M843,1305L641,1315L1294,1312Z" fill="#7e5894" stroke="#7e5894" stroke-width="1.51"/><path d="M1049,1293L843,1305L1294,1312Z" fill="#7e5090" stroke="#7e5090" stroke-width="1.51"/><path d="M-4,-257L424,-255L1538,-257Z" fill="#c6d7e9" stroke="#c6d7e9" stroke-width="1.51"/><path d="M614,-231L827,-213L1538,-257Z" fill="#bcc2de" stroke="#bcc2de" stroke-width="1.51"/><path d="M424,-255L614,-231L1538,-257Z" fill="#c0cbe2" stroke="#c0cbe2" stroke-width="1.51"/><path d="M1040,-202L1310,-204L1538,-257Z" fill="#bcadd4" stroke="#bcadd4" stroke-width="1.51"/><path d="M827,-213L1040,-202L1538,-257Z" fill="#bcb8d9" stroke="#bcb8d9" stroke-width="1.51"/><path d="M1294,1312L641,1315L1713,1338Z" fill="#7a448a" stroke="#7a448a" stroke-width="1.51"/><path d="M641,1315L189,1335L1713,1338Z" fill="#7f5c94" stroke="#7f5c94" stroke-width="1.51"/><path d="M1929,186L1954,446L2158,418Z" fill="#906aa3" stroke="#906aa3" stroke-width="1.51"/><path d="M1954,446L1975,666L2158,418Z" fill="#865c9b" stroke="#865c9b" stroke-width="1.51"/><path d="M1929,186L2158,418L2162,184Z" fill="#8e6da1" stroke="#8e6da1" stroke-width="1.51"/><path d="M1940,-36L1929,186L2162,184Z" fill="#9f77ab" stroke="#9f77ab" stroke-width="1.51"/><path d="M2158,418L1975,666L2166,670Z" fill="#7f5292" stroke="#7f5292" stroke-width="1.51"/><path d="M1975,666L1947,846L2166,670Z" fill="#824691" stroke="#824691" stroke-width="1.51"/><path d="M1700,-255L1947,-204L2168,-240Z" fill="#ba89ba" stroke="#ba89ba" stroke-width="1.51"/><path d="M1947,-204L1940,-36L2168,-240Z" fill="#b184b2" stroke="#b184b2" stroke-width="1.51"/><path d="M2166,670L1947,846L2186,882Z" fill="#7c3c88" stroke="#7c3c88" stroke-width="1.51"/><path d="M1964,1085L2177,1095L2186,882Z" fill="#77247d" stroke="#77247d" stroke-width="1.51"/><path d="M1947,846L1964,1085L2186,882Z" fill="#7f2f88" stroke="#7f2f88" stroke-width="1.51"/><path d="M2177,1095L1964,1085L2191,1291Z" fill="#751273" stroke="#751273" stroke-width="1.51"/><path d="M1964,1085L1932,1318L2191,1291Z" fill="#760b72" stroke="#760b72" stroke-width="1.51"/><path d="M2186,882L2177,1095L2191,1291Z" fill="#701a72" stroke="#701a72" stroke-width="1.51"/><path d="M2168,-240L1940,-36L2195,-13Z" fill="#a67da9" stroke="#a67da9" stroke-width="1.51"/><path d="M1940,-36L2162,184L2195,-13Z" fill="#9c76a5" stroke="#9c76a5" stroke-width="1.51"/><path d="M2166,670L2186,882L2195,-13Z" fill="#79568f" stroke="#79568f" stroke-width="1.51"/><path d="M2158,418L2166,670L2195,-13Z" fill="#816396" stroke="#816396" stroke-width="1.51"/><path d="M2162,184L2158,418L2195,-13Z" fill="#8c6c9c" stroke="#8c6c9c" stroke-width="1.51"/><path d="M1500,1282L1294,1312L1713,1338Z" fill="#793183" stroke="#793183" stroke-width="1.51"/><path d="M1723,17L1929,186L1940,-36Z" fill="#a981b6" stroke="#a981b6" stroke-width="1.51"/><path d="M1727,866L1728,1071L1947,846Z" fill="#873c96" stroke="#873c96" stroke-width="1.51"/><path d="M1929,186L1745,238L1954,446Z" fill="#9975af" stroke="#9975af" stroke-width="1.51"/><path d="M1745,238L1712,412L1954,446Z" fill="#9473af" stroke="#9473af" stroke-width="1.51"/><path d="M1947,846L1728,1071L1964,1085Z" fill="#862f8e" stroke="#862f8e" stroke-width="1.51"/><path d="M1728,1071L1932,1318L1964,1085Z" fill="#831e82" stroke="#831e82" stroke-width="1.51"/><path d="M1954,446L1740,644L1975,666Z" fill="#8c5ba2" stroke="#8c5ba2" stroke-width="1.51"/><path d="M1740,644L1947,846L1975,666Z" fill="#8a4d9b" stroke="#8a4d9b" stroke-width="1.51"/><path d="M1728,1071L1713,1338L1932,1318Z" fill="#7e1e7f" stroke="#7e1e7f" stroke-width="1.51"/><path d="M1723,17L1940,-36L1947,-204Z" fill="#b287ba" stroke="#b287ba" stroke-width="1.51"/><path d="M1700,-255L1723,17L1947,-204Z" fill="#b78ec0" stroke="#b78ec0" stroke-width="1.51"/><path d="M1740,644L1727,866L1947,846Z" fill="#8a4a9c" stroke="#8a4a9c" stroke-width="1.51"/><path d="M1712,412L1740,644L1954,446Z" fill="#8e68aa" stroke="#8e68aa" stroke-width="1.51"/><path d="M1723,17L1745,238L1929,186Z" fill="#a37fb6" stroke="#a37fb6" stroke-width="1.51"/><path d="M1538,-257L1533,-19L1700,-255Z" fill="#ba9aca" stroke="#ba9aca" stroke-width="1.51"/><path d="M1484,417L1525,641L1712,412Z" fill="#8f74b5" stroke="#8f74b5" stroke-width="1.51"/><path d="M1700,-255L1533,-19L1723,17Z" fill="#b492c6" stroke="#b492c6" stroke-width="1.51"/><path d="M1533,-19L1493,238L1723,17Z" fill="#a88ec3" stroke="#a88ec3" stroke-width="1.51"/><path d="M1525,641L1510,852L1727,866Z" fill="#8b56a7" stroke="#8b56a7" stroke-width="1.51"/><path d="M1500,1282L1713,1338L1728,1071Z" fill="#812987" stroke="#812987" stroke-width="1.51"/><path d="M1498,1095L1500,1282L1728,1071Z" fill="#863591" stroke="#863591" stroke-width="1.51"/><path d="M1727,866L1510,852L1728,1071Z" fill="#88449d" stroke="#88449d" stroke-width="1.51"/><path d="M1510,852L1498,1095L1728,1071Z" fill="#88429c" stroke="#88429c" stroke-width="1.51"/><path d="M1525,641L1727,866L1740,644Z" fill="#8a59a7" stroke="#8a59a7" stroke-width="1.51"/><path d="M1712,412L1525,641L1740,644Z" fill="#8c68ae" stroke="#8c68ae" stroke-width="1.51"/><path d="M1723,17L1493,238L1745,238Z" fill="#a186be" stroke="#a186be" stroke-width="1.51"/><path d="M1493,238L1712,412L1745,238Z" fill="#997fba" stroke="#997fba" stroke-width="1.51"/><path d="M1493,238L1484,417L1712,412Z" fill="#9581bb" stroke="#9581bb" stroke-width="1.51"/><path d="M407,1304L189,1335L641,1315Z" fill="#916f9f" stroke="#916f9f" stroke-width="1.51"/><path d="M1282,433L1319,672L1484,417Z" fill="#8e7fbb" stroke="#8e7fbb" stroke-width="1.51"/><path d="M1296,-16L1266,237L1493,238Z" fill="#a398c8" stroke="#a398c8" stroke-width="1.51"/><path d="M1293,861L1287,1080L1498,1095Z" fill="#8a50a2" stroke="#8a50a2" stroke-width="1.51"/><path d="M1293,861L1498,1095L1510,852Z" fill="#8a52a4" stroke="#8a52a4" stroke-width="1.51"/><path d="M1319,672L1510,852L1525,641Z" fill="#8c65ae" stroke="#8c65ae" stroke-width="1.51"/><path d="M1484,417L1319,672L1525,641Z" fill="#8d74b5" stroke="#8d74b5" stroke-width="1.51"/><path d="M1296,-16L1493,238L1533,-19Z" fill="#a997c8" stroke="#a997c8" stroke-width="1.51"/><path d="M1310,-204L1296,-16L1533,-19Z" fill="#b4a2ce" stroke="#b4a2ce" stroke-width="1.51"/><path d="M1310,-204L1533,-19L1538,-257Z" fill="#b8a1ce" stroke="#b8a1ce" stroke-width="1.51"/><path d="M1498,1095L1287,1080L1500,1282Z" fill="#883f96" stroke="#883f96" stroke-width="1.51"/><path d="M1287,1080L1294,1312L1500,1282Z" fill="#853f91" stroke="#853f91" stroke-width="1.51"/><path d="M1319,672L1293,861L1510,852Z" fill="#8c63ad" stroke="#8c63ad" stroke-width="1.51"/><path d="M1266,237L1282,433L1484,417Z" fill="#958dc2" stroke="#958dc2" stroke-width="1.51"/><path d="M1266,237L1484,417L1493,238Z" fill="#988dc2" stroke="#988dc2" stroke-width="1.51"/><path d="M1041,18L1052,226L1266,237Z" fill="#a2a6cf" stroke="#a2a6cf" stroke-width="1.51"/><path d="M1045,1087L1049,1293L1287,1080Z" fill="#8b549f" stroke="#8b549f" stroke-width="1.51"/><path d="M1082,899L1287,1080L1293,861Z" fill="#8b5faa" stroke="#8b5faa" stroke-width="1.51"/><path d="M1287,1080L1049,1293L1294,1312Z" fill="#864a95" stroke="#864a95" stroke-width="1.51"/><path d="M1041,18L1266,237L1296,-16Z" fill="#a8a5cf" stroke="#a8a5cf" stroke-width="1.51"/><path d="M1040,-202L1296,-16L1310,-204Z" fill="#b8b0d5" stroke="#b8b0d5" stroke-width="1.51"/><path d="M1282,433L1090,454L1319,672Z" fill="#8e86be" stroke="#8e86be" stroke-width="1.51"/><path d="M1090,454L1069,675L1319,672Z" fill="#8d83bc" stroke="#8d83bc" stroke-width="1.51"/><path d="M1069,675L1293,861L1319,672Z" fill="#8c72b4" stroke="#8c72b4" stroke-width="1.51"/><path d="M1266,237L1090,454L1282,433Z" fill="#9493c5" stroke="#9493c5" stroke-width="1.51"/><path d="M1069,675L1082,899L1293,861Z" fill="#8c70b3" stroke="#8c70b3" stroke-width="1.51"/><path d="M1040,-202L1041,18L1296,-16Z" fill="#b3b2d6" stroke="#b3b2d6" stroke-width="1.51"/><path d="M1052,226L1090,454L1266,237Z" fill="#979ecb" stroke="#979ecb" stroke-width="1.51"/><path d="M1082,899L1045,1087L1287,1080Z" fill="#8b5ea9" stroke="#8b5ea9" stroke-width="1.51"/><path d="M1041,18L835,217L1052,226Z" fill="#a2b0d4" stroke="#a2b0d4" stroke-width="1.51"/><path d="M823,891L1045,1087L1082,899Z" fill="#8d6db2" stroke="#8d6db2" stroke-width="1.51"/><path d="M1069,675L872,674L1082,899Z" fill="#8d7fba" stroke="#8d7fba" stroke-width="1.51"/><path d="M872,674L823,891L1082,899Z" fill="#8e7db9" stroke="#8e7db9" stroke-width="1.51"/><path d="M1052,226L858,423L1090,454Z" fill="#93a2cc" stroke="#93a2cc" stroke-width="1.51"/><path d="M872,674L1069,675L1090,454Z" fill="#8d8dc1" stroke="#8d8dc1" stroke-width="1.51"/><path d="M858,423L872,674L1090,454Z" fill="#8e99c8" stroke="#8e99c8" stroke-width="1.51"/><path d="M1040,-202L836,13L1041,18Z" fill="#b2bcda" stroke="#b2bcda" stroke-width="1.51"/><path d="M823,891L821,1075L1045,1087Z" fill="#8f6eb0" stroke="#8f6eb0" stroke-width="1.51"/><path d="M1045,1087L843,1305L1049,1293Z" fill="#885a9c" stroke="#885a9c" stroke-width="1.51"/><path d="M827,-213L836,13L1040,-202Z" fill="#b8c4df" stroke="#b8c4df" stroke-width="1.51"/><path d="M836,13L835,217L1041,18Z" fill="#a9b8d8" stroke="#a9b8d8" stroke-width="1.51"/><path d="M821,1075L843,1305L1045,1087Z" fill="#8e63a5" stroke="#8e63a5" stroke-width="1.51"/><path d="M835,217L858,423L1052,226Z" fill="#99add2" stroke="#99add2" stroke-width="1.51"/><path d="M634,671L654,883L823,891Z" fill="#948ac1" stroke="#948ac1" stroke-width="1.51"/><path d="M650,4L835,217L836,13Z" fill="#acc0dc" stroke="#acc0dc" stroke-width="1.51"/><path d="M827,-213L650,4L836,13Z" fill="#b7c9e1" stroke="#b7c9e1" stroke-width="1.51"/><path d="M821,1075L641,1315L843,1305Z" fill="#8e66a3" stroke="#8e66a3" stroke-width="1.51"/><path d="M654,406L634,671L858,423Z" fill="#94a7cf" stroke="#94a7cf" stroke-width="1.51"/><path d="M835,217L654,406L858,423Z" fill="#99b0d4" stroke="#99b0d4" stroke-width="1.51"/><path d="M858,423L634,671L872,674Z" fill="#929bc8" stroke="#929bc8" stroke-width="1.51"/><path d="M634,671L823,891L872,674Z" fill="#928dc1" stroke="#928dc1" stroke-width="1.51"/><path d="M621,1067L641,1315L821,1075Z" fill="#9570ac" stroke="#9570ac" stroke-width="1.51"/><path d="M654,883L821,1075L823,891Z" fill="#937bb9" stroke="#937bb9" stroke-width="1.51"/><path d="M620,239L654,406L835,217Z" fill="#9fb9d9" stroke="#9fb9d9" stroke-width="1.51"/><path d="M650,4L620,239L835,217Z" fill="#a9c0dd" stroke="#a9c0dd" stroke-width="1.51"/><path d="M654,883L621,1067L821,1075Z" fill="#947ab7" stroke="#947ab7" stroke-width="1.51"/><path d="M614,-231L650,4L827,-213Z" fill="#bfd1e6" stroke="#bfd1e6" stroke-width="1.51"/><path d="M-4,-257L168,-215L424,-255Z" fill="#dbe8f1" stroke="#dbe8f1" stroke-width="1.51"/><path d="M382,1118L407,1304L621,1067Z" fill="#9d77b0" stroke="#9d77b0" stroke-width="1.51"/><path d="M385,458L386,633L634,671Z" fill="#9eaad0" stroke="#9eaad0" stroke-width="1.51"/><path d="M621,1067L407,1304L641,1315Z" fill="#9670a8" stroke="#9670a8" stroke-width="1.51"/><path d="M614,-231L404,-38L650,4Z" fill="#c0d4e8" stroke="#c0d4e8" stroke-width="1.51"/><path d="M391,180L620,239L650,4Z" fill="#b0c8e1" stroke="#b0c8e1" stroke-width="1.51"/><path d="M404,-38L391,180L650,4Z" fill="#bacfe4" stroke="#bacfe4" stroke-width="1.51"/><path d="M385,458L634,671L654,406Z" fill="#9aaed3" stroke="#9aaed3" stroke-width="1.51"/><path d="M620,239L385,458L654,406Z" fill="#a0bad9" stroke="#a0bad9" stroke-width="1.51"/><path d="M634,671L433,883L654,883Z" fill="#9991c4" stroke="#9991c4" stroke-width="1.51"/><path d="M433,883L621,1067L654,883Z" fill="#9a85be" stroke="#9a85be" stroke-width="1.51"/><path d="M386,633L433,883L634,671Z" fill="#9d9bc9" stroke="#9d9bc9" stroke-width="1.51"/><path d="M424,-255L404,-38L614,-231Z" fill="#cadbea" stroke="#cadbea" stroke-width="1.51"/><path d="M391,180L385,458L620,239Z" fill="#a9c3de" stroke="#a9c3de" stroke-width="1.51"/><path d="M433,883L382,1118L621,1067Z" fill="#9e81bb" stroke="#9e81bb" stroke-width="1.51"/><path d="M188,849L188,1110L382,1118Z" fill="#a989bf" stroke="#a989bf" stroke-width="1.51"/><path d="M168,668L188,849L386,633Z" fill="#a9a5ce" stroke="#a9a5ce" stroke-width="1.51"/><path d="M196,404L385,458L391,180Z" fill="#adc4df" stroke="#adc4df" stroke-width="1.51"/><path d="M180,233L196,404L391,180Z" fill="#b4cbe3" stroke="#b4cbe3" stroke-width="1.51"/><path d="M204,9L391,180L404,-38Z" fill="#c1d5e7" stroke="#c1d5e7" stroke-width="1.51"/><path d="M168,-215L404,-38L424,-255Z" fill="#d1e0ed" stroke="#d1e0ed" stroke-width="1.51"/><path d="M386,633L188,849L433,883Z" fill="#a59ac9" stroke="#a59ac9" stroke-width="1.51"/><path d="M188,849L382,1118L433,883Z" fill="#a58cc2" stroke="#a58cc2" stroke-width="1.51"/><path d="M188,1110L189,1335L382,1118Z" fill="#a77db2" stroke="#a77db2" stroke-width="1.51"/><path d="M168,-215L204,9L404,-38Z" fill="#cfdfed" stroke="#cfdfed" stroke-width="1.51"/><path d="M382,1118L189,1335L407,1304Z" fill="#9d76a9" stroke="#9d76a9" stroke-width="1.51"/><path d="M196,404L168,668L385,458Z" fill="#aab9d9" stroke="#aab9d9" stroke-width="1.51"/><path d="M385,458L168,668L386,633Z" fill="#a6afd4" stroke="#a6afd4" stroke-width="1.51"/><path d="M204,9L180,233L391,180Z" fill="#bed2e6" stroke="#bed2e6" stroke-width="1.51"/><path d="M-4,-257L-57,9L168,-215Z" fill="#dfeaf3" stroke="#dfeaf3" stroke-width="1.51"/><path d="M-35,433L-7,652L168,668Z" fill="#b3b9d9" stroke="#b3b9d9" stroke-width="1.51"/><path d="M-12,1063L-28,1328L188,1110Z" fill="#b185b8" stroke="#b185b8" stroke-width="1.51"/><path d="M168,668L-7,652L188,849Z" fill="#afa8d1" stroke="#afa8d1" stroke-width="1.51"/><path d="M-7,652L-57,868L188,849Z" fill="#b3a5cf" stroke="#b3a5cf" stroke-width="1.51"/><path d="M-12,1063L188,1110L188,849Z" fill="#af8ec3" stroke="#af8ec3" stroke-width="1.51"/><path d="M-57,868L-12,1063L188,849Z" fill="#b399c9" stroke="#b399c9" stroke-width="1.51"/><path d="M188,1110L-28,1328L189,1335Z" fill="#a67dad" stroke="#a67dad" stroke-width="1.51"/><path d="M-35,433L168,668L196,404Z" fill="#b1bedb" stroke="#b1bedb" stroke-width="1.51"/><path d="M180,233L-15,227L196,404Z" fill="#bad0e5" stroke="#bad0e5" stroke-width="1.51"/><path d="M-15,227L-35,433L196,404Z" fill="#bacee4" stroke="#bacee4" stroke-width="1.51"/><path d="M168,-215L-57,9L204,9Z" fill="#d5e4ef" stroke="#d5e4ef" stroke-width="1.51"/><path d="M-15,227L180,233L204,9Z" fill="#c4d6e8" stroke="#c4d6e8" stroke-width="1.51"/><path d="M-57,9L-15,227L204,9Z" fill="#ceddec" stroke="#ceddec" stroke-width="1.51"/><path d="M-272,892L-264,1091L-57,868Z" fill="#bc9ccc" stroke="#bc9ccc" stroke-width="1.51"/><path d="M-239,11L-261,218L-57,9Z" fill="#d7e4ef" stroke="#d7e4ef" stroke-width="1.51"/><path d="M-269,-222L-239,11L-57,9Z" fill="#e2edf5" stroke="#e2edf5" stroke-width="1.51"/><path d="M-249,432L-271,638L-35,433Z" fill="#bdc7e1" stroke="#bdc7e1" stroke-width="1.51"/><path d="M-264,1091L-224,1331L-28,1328Z" fill="#b385b2" stroke="#b385b2" stroke-width="1.51"/><path d="M-57,9L-261,218L-15,227Z" fill="#cfdfec" stroke="#cfdfec" stroke-width="1.51"/><path d="M-249,432L-35,433L-15,227Z" fill="#c0d1e6" stroke="#c0d1e6" stroke-width="1.51"/><path d="M-261,218L-249,432L-15,227Z" fill="#c6d9ea" stroke="#c6d9ea" stroke-width="1.51"/><path d="M-264,1091L-28,1328L-12,1063Z" fill="#b88abb" stroke="#b88abb" stroke-width="1.51"/><path d="M-57,868L-264,1091L-12,1063Z" fill="#b996c7" stroke="#b996c7" stroke-width="1.51"/><path d="M-35,433L-271,638L-7,652Z" fill="#b9bedc" stroke="#b9bedc" stroke-width="1.51"/><path d="M-271,638L-57,868L-7,652Z" fill="#b9b0d5" stroke="#b9b0d5" stroke-width="1.51"/><path d="M-269,-222L-57,9L-4,-257Z" fill="#e5eff5" stroke="#e5eff5" stroke-width="1.51"/><path d="M-271,638L-272,892L-57,868Z" fill="#bdaad3" stroke="#bdaad3" stroke-width="1.51"/><path d="M-269,-222L-261,218L-239,11Z" fill="#dfeaf3" stroke="#dfeaf3" stroke-width="1.51"/><path d="M-261,218L-271,638L-249,432Z" fill="#c3cfe5" stroke="#c3cfe5" stroke-width="1.51"/><path d="M-269,-222L-271,638L-261,218Z" fill="#d0dfed" stroke="#d0dfed" stroke-width="1.51"/></svg>