<svg xmlns="http://www.w3.org/2000/svg" width="1920" height="1080"><path d="M-28 1328l-196 3 413 4z" fill="#a37ca6" stroke="#a37ca6" stroke-width="1.51"/><path d="M843 1305l-202 10 653-3z" fill="#7e5894" stroke="#7e5894" stroke-width="1.51"/><path d="M1049 1293l-206 12 451 7z" fill="#7e5090" stroke="#7e5090" stroke-width="1.51"/><path d="M-4-257l428 2 1114-2z" fill="#c6d7e9" stroke="#c6d7e9" stroke-width="1.51"/><path d="M614-231l213 18 711-44z" fill="#bcc2de" stroke="#bcc2de" stroke-width="1.51"/><path d="M424-255l190 24 924-26z" fill="#c0cbe2" stroke="#c0cbe2" stroke-width="1.51"/><path d="M1040-202l270-2 228-53z" fill="#bcadd4" stroke="#bcadd4" stroke-width="1.51"/><path d="M827-213l213 11 498-55z" fill="#bcb8d9" stroke="#bcb8d9" stroke-width="1.51"/><path d="M1294 1312l-653 3 1072 23z" fill="#7a448a" stroke="#7a448a" stroke-width="1.51"/><path d="M641 1315l-452 20 1524 3z" fill="#7f5c94" stroke="#7f5c94" stroke-width="1.51"/><path d="M1929 186l25 260 204-28z" fill="#906aa3" stroke="#906aa3" stroke-width="1.51"/><path d="M1954 446l21 220 183-248z" fill="#865c9b" stroke="#865c9b" stroke-width="1.51"/><path d="M1929 186l229 232 4-234z" fill="#8e6da1" stroke="#8e6da1" stroke-width="1.51"/><path d="M1940-36l-11 222 233-2z" fill="#9f77ab" stroke="#9f77ab" stroke-width="1.51"/><path d="M2158 418l-183 248 191 4z" fill="#7f5292" stroke="#7f5292" stroke-width="1.51"/><path d="M1975 666l-28 180 219-176z" fill="#824691" stroke="#824691" stroke-width="1.51"/><path d="M1700-255l247 51 221-36z" fill="#ba89ba" stroke="#ba89ba" stroke-width="1.51"/><path d="M1947-204l-7 168 228-204z" fill="#b184b2" stroke="#b184b2" stroke-width="1.51"/><path d="M2166 670l-219 176 239 36z" fill="#7c3c88" stroke="#7c3c88" stroke-width="1.51"/><path d="M1964 1085l213 10 9-213z" fill="#77247d" stroke="#77247d" stroke-width="1.51"/><path d="M1947 846l17 239 222-203z" fill="#7f2f88" stroke="#7f2f88" stroke-width="1.51"/><path d="M2177 1095l-213-10 227 206z" fill="#751273" stroke="#751273" stroke-width="1.51"/><path d="M1964 1085l-32 233 259-27z" fill="#760b72" stroke="#760b72" stroke-width="1.51"/><path d="M2186 882l-9 213 14 196z" fill="#701a72" stroke="#701a72" stroke-width="1.51"/><path d="M2168-240L1940-36l255 23z" fill="#a67da9" stroke="#a67da9" stroke-width="1.51"/><path d="M1940-36l222 220 33-197z" fill="#9c76a5" stroke="#9c76a5" stroke-width="1.51"/><path d="M2166 670l20 212 9-895z" fill="#79568f" stroke="#79568f" stroke-width="1.51"/><path d="M2158 418l8 252 29-683z" fill="#816396" stroke="#816396" stroke-width="1.51"/><path d="M2162 184l-4 234 37-431z" fill="#8c6c9c" stroke="#8c6c9c" stroke-width="1.51"/><path d="M1500 1282l-206 30 419 26z" fill="#793183" stroke="#793183" stroke-width="1.51"/><path d="M1723 17l206 169 11-222z" fill="#a981b6" stroke="#a981b6" stroke-width="1.51"/><path d="M1727 866l1 205 219-225z" fill="#873c96" stroke="#873c96" stroke-width="1.51"/><path d="M1929 186l-184 52 209 208z" fill="#9975af" stroke="#9975af" stroke-width="1.51"/><path d="M1745 238l-33 174 242 34z" fill="#9473af" stroke="#9473af" stroke-width="1.51"/><path d="M1947 846l-219 225 236 14z" fill="#862f8e" stroke="#862f8e" stroke-width="1.51"/><path d="M1728 1071l204 247 32-233z" fill="#831e82" stroke="#831e82" stroke-width="1.51"/><path d="M1954 446l-214 198 235 22z" fill="#8c5ba2" stroke="#8c5ba2" stroke-width="1.51"/><path d="M1740 644l207 202 28-180z" fill="#8a4d9b" stroke="#8a4d9b" stroke-width="1.51"/><path d="M1728 1071l-15 267 219-20z" fill="#7e1e7f" stroke="#7e1e7f" stroke-width="1.51"/><path d="M1723 17l217-53 7-168z" fill="#b287ba" stroke="#b287ba" stroke-width="1.51"/><path d="M1700-255l23 272 224-221z" fill="#b78ec0" stroke="#b78ec0" stroke-width="1.51"/><path d="M1740 644l-13 222 220-20z" fill="#8a4a9c" stroke="#8a4a9c" stroke-width="1.51"/><path d="M1712 412l28 232 214-198z" fill="#8e68aa" stroke="#8e68aa" stroke-width="1.51"/><path d="M1723 17l22 221 184-52z" fill="#a37fb6" stroke="#a37fb6" stroke-width="1.51"/><path d="M1538-257l-5 238 167-236z" fill="#ba9aca" stroke="#ba9aca" stroke-width="1.51"/><path d="M1484 417l41 224 187-229z" fill="#8f74b5" stroke="#8f74b5" stroke-width="1.51"/><path d="M1700-255L1533-19l190 36z" fill="#b492c6" stroke="#b492c6" stroke-width="1.51"/><path d="M1533-19l-40 257 230-221z" fill="#a88ec3" stroke="#a88ec3" stroke-width="1.51"/><path d="M1525 641l-15 211 217 14z" fill="#8b56a7" stroke="#8b56a7" stroke-width="1.51"/><path d="M1500 1282l213 56 15-267z" fill="#812987" stroke="#812987" stroke-width="1.51"/><path d="M1498 1095l2 187 228-211z" fill="#863591" stroke="#863591" stroke-width="1.51"/><path d="M1727 866l-217-14 218 219z" fill="#88449d" stroke="#88449d" stroke-width="1.51"/><path d="M1510 852l-12 243 230-24z" fill="#88429c" stroke="#88429c" stroke-width="1.51"/><path d="M1525 641l202 225 13-222z" fill="#8a59a7" stroke="#8a59a7" stroke-width="1.51"/><path d="M1712 412l-187 229 215 3z" fill="#8c68ae" stroke="#8c68ae" stroke-width="1.51"/><path d="M1723 17l-230 221h252z" fill="#a186be" stroke="#a186be" stroke-width="1.51"/><path d="M1493 238l219 174 33-174z" fill="#997fba" stroke="#997fba" stroke-width="1.51"/><path d="M1493 238l-9 179 228-5z" fill="#9581bb" stroke="#9581bb" stroke-width="1.51"/><path d="M407 1304l-218 31 452-20z" fill="#916f9f" stroke="#916f9f" stroke-width="1.51"/><path d="M1282 433l37 239 165-255z" fill="#8e7fbb" stroke="#8e7fbb" stroke-width="1.51"/><path d="M1296-16l-30 253 227 1z" fill="#a398c8" stroke="#a398c8" stroke-width="1.51"/><path d="M1293 861l-6 219 211 15z" fill="#8a50a2" stroke="#8a50a2" stroke-width="1.51"/><path d="M1293 861l205 234 12-243z" fill="#8a52a4" stroke="#8a52a4" stroke-width="1.51"/><path d="M1319 672l191 180 15-211z" fill="#8c65ae" stroke="#8c65ae" stroke-width="1.51"/><path d="M1484 417l-165 255 206-31z" fill="#8d74b5" stroke="#8d74b5" stroke-width="1.51"/><path d="M1296-16l197 254 40-257z" fill="#a997c8" stroke="#a997c8" stroke-width="1.51"/><path d="M1310-204l-14 188 237-3z" fill="#b4a2ce" stroke="#b4a2ce" stroke-width="1.51"/><path d="M1310-204l223 185 5-238z" fill="#b8a1ce" stroke="#b8a1ce" stroke-width="1.51"/><path d="M1498 1095l-211-15 213 202z" fill="#883f96" stroke="#883f96" stroke-width="1.51"/><path d="M1287 1080l7 232 206-30z" fill="#853f91" stroke="#853f91" stroke-width="1.51"/><path d="M1319 672l-26 189 217-9z" fill="#8c63ad" stroke="#8c63ad" stroke-width="1.51"/><path d="M1266 237l16 196 202-16z" fill="#958dc2" stroke="#958dc2" stroke-width="1.51"/><path d="M1266 237l218 180 9-179z" fill="#988dc2" stroke="#988dc2" stroke-width="1.51"/><path d="M1041 18l11 208 214 11z" fill="#a2a6cf" stroke="#a2a6cf" stroke-width="1.51"/><path d="M1045 1087l4 206 238-213z" fill="#8b549f" stroke="#8b549f" stroke-width="1.51"/><path d="M1082 899l205 181 6-219z" fill="#8b5faa" stroke="#8b5faa" stroke-width="1.51"/><path d="M1287 1080l-238 213 245 19z" fill="#864a95" stroke="#864a95" stroke-width="1.51"/><path d="M1041 18l225 219 30-253z" fill="#a8a5cf" stroke="#a8a5cf" stroke-width="1.51"/><path d="M1040-202l256 186 14-188z" fill="#b8b0d5" stroke="#b8b0d5" stroke-width="1.51"/><path d="M1282 433l-192 21 229 218z" fill="#8e86be" stroke="#8e86be" stroke-width="1.51"/><path d="M1090 454l-21 221 250-3z" fill="#8d83bc" stroke="#8d83bc" stroke-width="1.51"/><path d="M1069 675l224 186 26-189z" fill="#8c72b4" stroke="#8c72b4" stroke-width="1.51"/><path d="M1266 237l-176 217 192-21z" fill="#9493c5" stroke="#9493c5" stroke-width="1.51"/><path d="M1069 675l13 224 211-38z" fill="#8c70b3" stroke="#8c70b3" stroke-width="1.51"/><path d="M1040-202l1 220 255-34z" fill="#b3b2d6" stroke="#b3b2d6" stroke-width="1.51"/><path d="M1052 226l38 228 176-217z" fill="#979ecb" stroke="#979ecb" stroke-width="1.51"/><path d="M1082 899l-37 188 242-7z" fill="#8b5ea9" stroke="#8b5ea9" stroke-width="1.51"/><path d="M1041 18L835 217l217 9z" fill="#a2b0d4" stroke="#a2b0d4" stroke-width="1.51"/><path d="M823 891l222 196 37-188z" fill="#8d6db2" stroke="#8d6db2" stroke-width="1.51"/><path d="M1069 675l-197-1 210 225z" fill="#8d7fba" stroke="#8d7fba" stroke-width="1.51"/><path d="M872 674l-49 217 259 8z" fill="#8e7db9" stroke="#8e7db9" stroke-width="1.51"/><path d="M1052 226L858 423l232 31z" fill="#93a2cc" stroke="#93a2cc" stroke-width="1.51"/><path d="M872 674l197 1 21-221z" fill="#8d8dc1" stroke="#8d8dc1" stroke-width="1.51"/><path d="M858 423l14 251 218-220z" fill="#8e99c8" stroke="#8e99c8" stroke-width="1.51"/><path d="M1040-202L836 13l205 5z" fill="#b2bcda" stroke="#b2bcda" stroke-width="1.51"/><path d="M823 891l-2 184 224 12z" fill="#8f6eb0" stroke="#8f6eb0" stroke-width="1.51"/><path d="M1045 1087l-202 218 206-12z" fill="#885a9c" stroke="#885a9c" stroke-width="1.51"/><path d="M827-213l9 226 204-215z" fill="#b8c4df" stroke="#b8c4df" stroke-width="1.51"/><path d="M836 13l-1 204 206-199z" fill="#a9b8d8" stroke="#a9b8d8" stroke-width="1.51"/><path d="M821 1075l22 230 202-218z" fill="#8e63a5" stroke="#8e63a5" stroke-width="1.51"/><path d="M835 217l23 206 194-197z" fill="#99add2" stroke="#99add2" stroke-width="1.51"/><path d="M634 671l20 212 169 8z" fill="#948ac1" stroke="#948ac1" stroke-width="1.51"/><path d="M650 4l185 213 1-204z" fill="#acc0dc" stroke="#acc0dc" stroke-width="1.51"/><path d="M827-213L650 4l186 9z" fill="#b7c9e1" stroke="#b7c9e1" stroke-width="1.51"/><path d="M821 1075l-180 240 202-10z" fill="#8e66a3" stroke="#8e66a3" stroke-width="1.51"/><path d="M654 406l-20 265 224-248z" fill="#94a7cf" stroke="#94a7cf" stroke-width="1.51"/><path d="M835 217L654 406l204 17z" fill="#99b0d4" stroke="#99b0d4" stroke-width="1.51"/><path d="M858 423L634 671l238 3z" fill="#929bc8" stroke="#929bc8" stroke-width="1.51"/><path d="M634 671l189 220 49-217z" fill="#928dc1" stroke="#928dc1" stroke-width="1.51"/><path d="M621 1067l20 248 180-240z" fill="#9570ac" stroke="#9570ac" stroke-width="1.51"/><path d="M654 883l167 192 2-184z" fill="#937bb9" stroke="#937bb9" stroke-width="1.51"/><path d="M620 239l34 167 181-189z" fill="#9fb9d9" stroke="#9fb9d9" stroke-width="1.51"/><path d="M650 4l-30 235 215-22z" fill="#a9c0dd" stroke="#a9c0dd" stroke-width="1.51"/><path d="M654 883l-33 184 200 8z" fill="#947ab7" stroke="#947ab7" stroke-width="1.51"/><path d="M614-231L650 4l177-217z" fill="#bfd1e6" stroke="#bfd1e6" stroke-width="1.51"/><path d="M-4-257l172 42 256-40z" fill="#dbe8f1" stroke="#dbe8f1" stroke-width="1.51"/><path d="M382 1118l25 186 214-237z" fill="#9d77b0" stroke="#9d77b0" stroke-width="1.51"/><path d="M385 458l1 175 248 38z" fill="#9eaad0" stroke="#9eaad0" stroke-width="1.51"/><path d="M621 1067l-214 237 234 11z" fill="#9670a8" stroke="#9670a8" stroke-width="1.51"/><path d="M614-231L404-38 650 4z" fill="#c0d4e8" stroke="#c0d4e8" stroke-width="1.51"/><path d="M391 180l229 59L650 4z" fill="#b0c8e1" stroke="#b0c8e1" stroke-width="1.51"/><path d="M404-38l-13 218L650 4z" fill="#bacfe4" stroke="#bacfe4" stroke-width="1.51"/><path d="M385 458l249 213 20-265z" fill="#9aaed3" stroke="#9aaed3" stroke-width="1.51"/><path d="M620 239L385 458l269-52z" fill="#a0bad9" stroke="#a0bad9" stroke-width="1.51"/><path d="M634 671L433 883h221z" fill="#9991c4" stroke="#9991c4" stroke-width="1.51"/><path d="M433 883l188 184 33-184z" fill="#9a85be" stroke="#9a85be" stroke-width="1.51"/><path d="M386 633l47 250 201-212z" fill="#9d9bc9" stroke="#9d9bc9" stroke-width="1.51"/><path d="M424-255L404-38l210-193z" fill="#cadbea" stroke="#cadbea" stroke-width="1.51"/><path d="M391 180l-6 278 235-219z" fill="#a9c3de" stroke="#a9c3de" stroke-width="1.51"/><path d="M433 883l-51 235 239-51z" fill="#9e81bb" stroke="#9e81bb" stroke-width="1.51"/><path d="M188 849v261l194 8z" fill="#a989bf" stroke="#a989bf" stroke-width="1.51"/><path d="M168 668l20 181 198-216z" fill="#a9a5ce" stroke="#a9a5ce" stroke-width="1.51"/><path d="M196 404l189 54 6-278z" fill="#adc4df" stroke="#adc4df" stroke-width="1.51"/><path d="M180 233l16 171 195-224z" fill="#b4cbe3" stroke="#b4cbe3" stroke-width="1.51"/><path d="M204 9l187 171 13-218z" fill="#c1d5e7" stroke="#c1d5e7" stroke-width="1.51"/><path d="M168-215L404-38l20-217z" fill="#d1e0ed" stroke="#d1e0ed" stroke-width="1.51"/><path d="M386 633L188 849l245 34z" fill="#a59ac9" stroke="#a59ac9" stroke-width="1.51"/><path d="M188 849l194 269 51-235z" fill="#a58cc2" stroke="#a58cc2" stroke-width="1.51"/><path d="M188 1110l1 225 193-217z" fill="#a77db2" stroke="#a77db2" stroke-width="1.51"/><path d="M168-215L204 9l200-47z" fill="#cfdfed" stroke="#cfdfed" stroke-width="1.51"/><path d="M382 1118l-193 217 218-31z" fill="#9d76a9" stroke="#9d76a9" stroke-width="1.51"/><path d="M196 404l-28 264 217-210z" fill="#aab9d9" stroke="#aab9d9" stroke-width="1.51"/><path d="M385 458L168 668l218-35z" fill="#a6afd4" stroke="#a6afd4" stroke-width="1.51"/><path d="M204 9l-24 224 211-53z" fill="#bed2e6" stroke="#bed2e6" stroke-width="1.51"/><path d="M-4-257L-57 9l225-224z" fill="#dfeaf3" stroke="#dfeaf3" stroke-width="1.51"/><path d="M-35 433l28 219 175 16z" fill="#b3b9d9" stroke="#b3b9d9" stroke-width="1.51"/><path d="M-12 1063l-16 265 216-218z" fill="#b185b8" stroke="#b185b8" stroke-width="1.51"/><path d="M168 668L-7 652l195 197z" fill="#afa8d1" stroke="#afa8d1" stroke-width="1.51"/><path d="M-7 652l-50 216 245-19z" fill="#b3a5cf" stroke="#b3a5cf" stroke-width="1.51"/><path d="M-12 1063l200 47V849z" fill="#af8ec3" stroke="#af8ec3" stroke-width="1.51"/><path d="M-57 868l45 195 200-214z" fill="#b399c9" stroke="#b399c9" stroke-width="1.51"/><path d="M188 1110l-216 218 217 7z" fill="#a67dad" stroke="#a67dad" stroke-width="1.51"/><path d="M-35 433l203 235 28-264z" fill="#b1bedb" stroke="#b1bedb" stroke-width="1.51"/><path d="M180 233l-195-6 211 177z" fill="#bad0e5" stroke="#bad0e5" stroke-width="1.51"/><path d="M-15 227l-20 206 231-29z" fill="#bacee4" stroke="#bacee4" stroke-width="1.51"/><path d="M168-215L-57 9h261z" fill="#d5e4ef" stroke="#d5e4ef" stroke-width="1.51"/><path d="M-15 227l195 6L204 9z" fill="#c4d6e8" stroke="#c4d6e8" stroke-width="1.51"/><path d="M-57 9l42 218L204 9z" fill="#ceddec" stroke="#ceddec" stroke-width="1.51"/><path d="M-272 892l8 199 207-223z" fill="#bc9ccc" stroke="#bc9ccc" stroke-width="1.51"/><path d="M-239 11l-22 207L-57 9z" fill="#d7e4ef" stroke="#d7e4ef" stroke-width="1.51"/><path d="M-269-222l30 233 182-2z" fill="#e2edf5" stroke="#e2edf5" stroke-width="1.51"/><path d="M-249 432l-22 206 236-205z" fill="#bdc7e1" stroke="#bdc7e1" stroke-width="1.51"/><path d="M-264 1091l40 240 196-3z" fill="#b385b2" stroke="#b385b2" stroke-width="1.51"/><path d="M-57 9l-204 209 246 9z" fill="#cfdfec" stroke="#cfdfec" stroke-width="1.51"/><path d="M-249 432l214 1 20-206z" fill="#c0d1e6" stroke="#c0d1e6" stroke-width="1.51"/><path d="M-261 218l12 214 234-205z" fill="#c6d9ea" stroke="#c6d9ea" stroke-width="1.51"/><path d="M-264 1091l236 237 16-265z" fill="#b88abb" stroke="#b88abb" stroke-width="1.51"/><path d="M-57 868l-207 223 252-28z" fill="#b996c7" stroke="#b996c7" stroke-width="1.51"/><path d="M-35 433l-236 205 264 14z" fill="#b9bedc" stroke="#b9bedc" stroke-width="1.51"/><path d="M-271 638l214 230 50-216z" fill="#b9b0d5" stroke="#b9b0d5" stroke-width="1.51"/><path d="M-269-222L-57 9l53-266z" fill="#e5eff5" stroke="#e5eff5" stroke-width="1.51"/><path d="M-271 638l-1 254 215-24z" fill="#bdaad3" stroke="#bdaad3" stroke-width="1.51"/><path d="M-269-222l8 440 22-207z" fill="#dfeaf3" stroke="#dfeaf3" stroke-width="1.51"/><path d="M-261 218l-10 420 22-206z" fill="#c3cfe5" stroke="#c3cfe5" stroke-width="1.51"/><path d="M-269-222l-2 860 10-420z" fill="#d0dfed" stroke="#d0dfed" stroke-width="1.51"/></svg>