<svg xmlns="http://www.w3.org/2000/svg" width="48" height="48"><circle fill-rule="evenodd" clip-rule="evenodd" fill="#66A3C6" cx="416" cy="587" r="24"/><circle fill-rule="evenodd" clip-rule="evenodd" fill="#FFF" cx="416" cy="588" r="12.35"/><path fill-rule="evenodd" clip-rule="evenodd" fill="#414243" d="M416 575c-7.18 0-13 5.82-13 13s5.82 13 13 13 13-5.82 13-13-5.82-13-13-13zm0 19.5a1.626 1.626 0 1 1 .001-3.251A1.626 1.626 0 0 1 416 594.5zm0-6.5a4.875 4.875 0 0 0 0 9.75 9.75 9.75 0 0 1-9.75-9.75 9.75 9.75 0 0 1 9.75-9.75 4.875 4.875 0 0 1 0 9.75zm0-6.5a1.625 1.625 0 1 0 0 3.25 1.625 1.625 0 0 0 0-3.25z"/><circle fill-rule="evenodd" clip-rule="evenodd" fill="#66A3C6" cx="416" cy="587" r="24"/><circle fill-rule="evenodd" clip-rule="evenodd" fill="#FFF" cx="416" cy="588" r="12.35"/><path fill-rule="evenodd" clip-rule="evenodd" fill="#414243" d="M416 581.5a1.625 1.625 0 1 0 0 3.25 1.625 1.625 0 0 0 0-3.25zm0-6.5c-7.18 0-13 5.82-13 13s5.82 13 13 13 13-5.82 13-13-5.82-13-13-13zm0 19.5a1.626 1.626 0 1 1 .001-3.251A1.626 1.626 0 0 1 416 594.5zm0-6.5a4.875 4.875 0 0 0 0 9.75 9.75 9.75 0 0 1-9.75-9.75 9.75 9.75 0 0 1 9.75-9.75 4.875 4.875 0 0 1 0 9.75z"/><circle fill-rule="evenodd" clip-rule="evenodd" fill="#66A3C6" cx="24" cy="24" r="24"/><circle fill-rule="evenodd" clip-rule="evenodd" fill="#FFF" cx="24" cy="25" r="12.35"/><path fill-rule="evenodd" clip-rule="evenodd" fill="#414243" d="M24 12c-7.18 0-13 5.82-13 13s5.82 13 13 13 13-5.82 13-13-5.82-13-13-13zm0 19.5a1.626 1.626 0 1 1 .001-3.251A1.626 1.626 0 0 1 24 31.5zm0-6.5a4.875 4.875 0 0 0 0 9.75A9.75 9.75 0 0 1 14.25 25 9.75 9.75 0 0 1 24 15.25 4.875 4.875 0 0 1 24 25zm0-6.5a1.625 1.625 0 1 0 0 3.25 1.625 1.625 0 0 0 0-3.25z"/></svg>