<?xml version="1.0" encoding="utf-8"?>
<!-- Generator: Adobe Illustrator 22.0.1, SVG Export Plug-In . SVG Version: 6.00 Build 0)  -->
<svg version="1.1" id="Layer_1" xmlns="http://www.w3.org/2000/svg" xmlns:xlink="http://www.w3.org/1999/xlink" x="0px" y="0px"
	 viewBox="0 0 1457.4 507.4" style="enable-background:new 0 0 1457.4 507.4;" xml:space="preserve">
<style type="text/css">
	.st0{fill:#922169;}
	.st1{fill:#ED3784;}
	.st2{fill:#F59EC1;}
	.st3{fill:#0F76BC;}
	.st4{fill:#2F2E73;}
	.st5{fill:#FCBE52;}
	.st6{fill:#E08444;}
	.st7{fill:#9BC1DD;}
	.st8{fill:#E9E9EA;}
	.st9{opacity:0.56;fill:#2F2E73;enable-background:new    ;}
	.st10{fill:#010101;}
	.st11{opacity:0.34;fill:#0F76BC;enable-background:new    ;}
</style>
<circle cx="253.7" cy="253.7" r="252.2"/>
<path class="st0" d="M201,335.9l2.2,166.1c16.8,3.4,34.1,5.1,51.9,5s35.1-2.2,51.8-6l-2.2-166.1l-51.9,0.5L201,335.9L201,335.9z"/>
<path class="st1" d="M253,342.7l-40.1,0.4l1.3,131.1l22.6-14.2l17.5,13.8l17.2-14.1l22.9,13.7L293,342.3L253,342.7z"/>
<path class="st2" d="M254,342.4h-27v101.2l14-9.7l13,9.7l13.1-9.7l14,9.7V342.4H254z"/>
<path class="st0" d="M347.2,393.3h-29.6v105.1c21-5.6,40.8-13.9,59.2-24.4v-80.6h-29.6V393.3z M158,393.3h-29.6v79
	c18.3,10.9,38.2,19.5,59.2,25.3V393.3H158z"/>
<path class="st1" d="M346.5,370l-22.9,0.2l0.7,74.7l12.9-8l10,7.8l9.8-8l13.1,7.8l-0.8-74.8L346.5,370z"/>
<path class="st2" d="M347.2,370.6h-15.4v57.7l8-5.6l7.4,5.6l7.5-5.6l8,5.6v-57.7H347.2z"/>
<path class="st1" d="M158,370.6h-22.9v74.7l13-7.9l9.9,7.9l9.9-7.9l13,7.9v-74.7L158,370.6z"/>
<path class="st2" d="M158,370.6h-15.4v57.7l7.9-5.6l7.5,5.6l7.5-5.6l7.9,5.6v-57.7H158z"/>
<path class="st3" d="M158.4,128.5v-0.2c0,0-0.1,0-0.2,0.1c-0.1-0.1-0.2-0.1-0.2-0.1v0.2c-3.2,1.6-29,15.8-29,43.6v221.3h58.4V172.1
	C187.4,144.3,161.6,130.1,158.4,128.5z"/>
<path class="st4" d="M347,128.5v-0.2c0,0-0.1,0-0.2,0.1c-0.1-0.1-0.2-0.1-0.2-0.1v0.2c-3.2,1.6-29,15.8-29,43.6v221.3H376V172.1
	C376,144.3,350.2,130.1,347,128.5z"/>
<path class="st5" d="M253.8,1.4c0,0-51.9,24.9-51.9,77.2v215.3h51.9L253.8,1.4L253.8,1.4z"/>
<path class="st6" d="M253.8,1.4c0,0,51.8,24.9,51.8,77.2v215.3h-51.9L253.8,1.4L253.8,1.4z"/>
<path class="st7" d="M439.7,329.7l-103.1-73.8l-33.6-57L273.8,83.4L254,71.7v309.9h169.6l16.2,41.6L439.7,329.7z"/>
<path class="st8" d="M234.3,83.4l-29.2,115.5l-33.6,57L68.4,329.7v91.8l16.1-39.9H254V71.7L234.3,83.4z"/>
<path class="st9" d="M336.6,255.9l-30.7,125.7h-24.8L303,198.9L336.6,255.9z"/>
<path class="st10" d="M254,143.3l17.6,5.2l25.7,27.7l5.7,22.7l-32.9-21.5H254V143.3z M254,101h14.7l11.5,7.8l-6.4-25.4L254,71.7V101
	z"/>
<path class="st11" d="M171.5,255.9l30.7,125.7H227l-21.9-182.7L171.5,255.9z"/>
<path class="st3" d="M254,143.3l-17.5,5.2l-25.7,27.7l-5.7,22.7l32.9-21.5h16V143.3z M254,101h-14.6l-11.5,7.8l6.4-25.4L254,71.7
	V101z"/>
<path class="st7" d="M254,381.6h51.9v11.7H254V381.6z"/>
<path class="st9" d="M254,381.6h51.9v11.7H254V381.6z"/>
<path class="st8" d="M202.2,381.6h51.9v11.7h-51.9L202.2,381.6z"/>
<path class="st11" d="M202.2,381.6h51.9v11.7h-51.9L202.2,381.6z"/>
<g>
	<path class="st9" d="M423.6,381.6l16.2,41.6l-0.1-93.5L423.6,381.6z"/>
</g>
<g>
	<path class="st11" d="M68.4,329.7v93.8l16.1-41.9L68.4,329.7z"/>
</g>
<g>
	<path d="M778.3,355.9c-9.9,5.7-23,10.2-39.1,13.6c-16.1,3.4-31.2,5-45.1,5c-40.5,0-71.3-11.9-92.6-35.6
		c-21.2-23.7-31.9-55.3-31.9-94.8c0-40.5,11.9-72.7,35.6-96.7c23.7-24,54.6-36,92.6-36c10.7,0,23.7,1.6,39.1,4.8
		c15.4,3.2,28.2,8.1,38.4,14.5L757,172.6c-12.7-4-23.3-6.8-31.9-8.4c-8.6-1.6-17.5-2.4-26.6-2.4c-17.9,0-33.3,6.8-46.2,20.5
		C639.4,196,633,216.4,633,243.8c0,27.3,5.8,47.6,17.5,60.7c11.7,13.2,26.6,19.7,44.7,19.7c5,0,9.8-0.2,14.5-0.7
		c4.7-0.5,9.2-1.2,13.4-2.2v-49.6h-46.6l-2.6-45.5h104.3V355.9z"/>
	<path d="M910.2,189l12.3,49.2c-8.7,0-18,1.7-27.9,5c-9.9,3.4-19.1,8.5-27.6,15.5v111h-61.5V189.4h30.9l16.4,21.2
		c7.5-5.5,16.4-10.4,26.8-14.9C890,191.2,900.2,189,910.2,189z"/>
	<path d="M1018.9,183c30.1,0,54.2,8.4,72.5,25.3c18.3,16.9,27.4,40.9,27.4,71.9c0,29.8-9.7,52.8-29.1,69.1
		c-19.4,16.3-43.6,24.4-72.7,24.4c-28.8,0-52.3-8.1-70.4-24.2c-18.1-16.1-27.2-39.9-27.2-71.2c0-29.8,9.4-53.2,28.3-70
		C966.7,191.5,990.4,183,1018.9,183z M1017.8,323.5c11.7,0,20.9-3.5,27.6-10.6c6.7-7.1,10.1-17.9,10.1-32.6c0-13.7-3-24.8-9.1-33.5
		c-6.1-8.7-14.8-13-26.3-13c-11.9,0-21.1,3.9-27.6,11.5c-6.5,7.7-9.7,18.8-9.7,33.2c0,14.2,3,25.2,8.9,33.2
		C997.7,319.5,1006.4,323.5,1017.8,323.5z"/>
	<path d="M1299.1,369.7l-33.9-99.5l-33.2,99.5h-54.8l-61.1-174l60.7-6.7l29.8,103.2l29.1-103.2h60.4l30.9,103.2L1355,189h61.8
		l-63,180.7H1299.1z"/>
</g>
</svg>
