<svg version="1" xmlns="http://www.w3.org/2000/svg" width="200" height="200"><path fill="#FFF" d="M-444.887-244.892h883.456v685.466h-883.456z"/><path fill="#4D8FEF" d="M60.567 175.72l-41.433-71.764 41.433-71.764h82.866l41.433 71.764-41.433 71.764z"/><path fill="#4886DD" d="M132 83.6l-60 17.392 7.158 6.011L72 106.92v17.143l51.657 51.657h19.776l29.788-51.596z"/><path fill="#FDFFFF" d="M72 83.6v17.391h60V83.6H72zm50.513 11.975a3.279 3.279 0 1 1 0-6.558 3.279 3.279 0 0 1 0 6.558zM72 106.92v17.391h60V106.92H72zm50.513 11.975a3.279 3.279 0 1 1 0-6.558 3.279 3.279 0 0 1 0 6.558z"/></svg>