<svg version="1" xmlns="http://www.w3.org/2000/svg" width="200" height="200"><path fill="#FFF" d="M-42.887-43.892h883.456v685.466H-42.887z"/><path d="M64.065 73.806H49.454v48.559h15.225V95.403l14.495 17.395 13.808-17.395v26.962h14.459V73.806H92.982L79.175 91.779l-15.11-17.973zm-24.174-21.31h125.822c6.402 0 11.596 5.191 11.596 11.595v68.132c0 6.403-5.192 11.595-11.596 11.595H39.891c-6.402 0-11.596-5.191-11.596-11.595V64.091c.001-6.402 5.192-11.595 11.596-11.595zm92.772 21.599h-.144v24.932h-13.916l21.453 23.338 21.454-23.481h-14.49V74.095h-14.357z"/><path fill="#3B69A2" d="M0 200h201v201H0z"/></svg>