<?xml version="1.0" encoding="utf-8"?>
<!-- Generator: Adobe Illustrator 17.0.0, SVG Export Plug-In . SVG Version: 6.00 Build 0)  -->
<!DOCTYPE svg PUBLIC "-//W3C//DTD SVG 1.0//EN" "http://www.w3.org/TR/2001/REC-SVG-20010904/DTD/svg10.dtd">
<svg version="1.0" id="Layer_1" xmlns="http://www.w3.org/2000/svg" xmlns:xlink="http://www.w3.org/1999/xlink" x="0px" y="0px"
	 width="200px" height="200px" viewBox="0 0 200 200" enable-background="new 0 0 200 200" xml:space="preserve">
<rect x="-645.887" y="-43.892" fill="#FFFFFF" width="883.456" height="685.466"/>
<g>
	<g>
		<path fill="#156AC3" d="M63.623,92.685c-4.369,0.002-8.406-0.904-12.256-2.643c-11.341-5.121-18.362-16.65-17.734-29.079
			c0.731-14.484,11.916-26.492,26.34-28.278c16.901-2.093,32.058,9.969,33.789,26.891c0.298,2.909,0.298,2.908-2.642,2.906
			c-8.582-0.005-17.165,0.018-25.747-0.04c-1.32-0.009-1.704,0.357-1.695,1.693c0.059,8.949,0.035,17.899,0.031,26.848
			C63.709,91.522,63.656,92.059,63.623,92.685z"/>
	</g>
	<g>
		<path fill="#E83E33" d="M110.142,62.449c-0.002-4.369,0.904-8.406,2.643-12.256c5.121-11.341,16.65-18.362,29.078-17.734
			c14.484,0.731,26.491,11.916,28.278,26.34c2.093,16.901-9.969,32.058-26.891,33.789c-2.909,0.298-2.908,0.298-2.906-2.642
			c0.005-8.582-0.018-17.165,0.04-25.747c0.009-1.321-0.357-1.704-1.693-1.695c-8.949,0.059-17.899,0.035-26.848,0.031
			C111.305,62.535,110.768,62.482,110.142,62.449z"/>
	</g>
	<g>
		<path fill="#F7C333" d="M93.859,137.551c0.002,4.369-0.904,8.406-2.643,12.256c-5.121,11.341-16.65,18.362-29.079,17.734
			c-14.484-0.731-26.492-11.916-28.278-26.34c-2.093-16.901,9.969-32.058,26.891-33.789c2.909-0.298,2.908-0.298,2.906,2.642
			c-0.005,8.582,0.018,17.165-0.04,25.747c-0.009,1.32,0.357,1.704,1.693,1.695c8.949-0.06,17.899-0.035,26.848-0.031
			C92.695,137.465,93.232,137.518,93.859,137.551z"/>
	</g>
	<g>
		<path fill="#478D37" d="M140.377,107.315c4.369-0.002,8.406,0.904,12.256,2.643c11.341,5.121,18.362,16.65,17.734,29.078
			c-0.731,14.484-11.916,26.491-26.34,28.278c-16.901,2.093-32.058-9.969-33.789-26.891c-0.298-2.909-0.298-2.908,2.642-2.906
			c8.582,0.005,17.165-0.018,25.747,0.04c1.32,0.009,1.704-0.357,1.695-1.693c-0.06-8.949-0.035-17.899-0.031-26.848
			C140.291,108.479,140.344,107.941,140.377,107.315z"/>
	</g>
</g>
</svg>
