<svg version="1" xmlns="http://www.w3.org/2000/svg" width="200" height="200"><path fill="#FFF" d="M-243.887-244.892h883.456v685.466h-883.456z"/><path fill="#3B69A2" d="M-201-1H0v201h-201z"/><path fill="#4D8FEF" d="M60.547 175.72l-41.433-71.764 41.433-71.764h82.865l41.433 71.764-41.433 71.764z"/><path fill="#4886DD" d="M45.975 112.127l60.702 63.593h36.735l30.972-53.645-70.78-69.359-10.976 20.895-22.187 20.594z"/><g fill="#F9FCFF"><path d="M101.872 73.611c-18.932 0-34.28 15.348-34.28 34.28 0 18.932 15.347 34.28 34.28 34.28 18.932 0 34.28-15.348 34.28-34.28-.001-18.933-15.348-34.28-34.28-34.28zm0 60.941c-14.725 0-26.662-11.937-26.662-26.662s11.937-26.662 26.662-26.662 26.662 11.937 26.662 26.662-11.937 26.662-26.662 26.662z"/><path d="M115.315 94.205l-4.163 4.163c-2.358-2.554-5.723-4.163-9.473-4.163-7.126 0-12.903 5.777-12.903 12.903 0 3.75 1.609 7.115 4.163 9.473l-4.163 4.163a18.707 18.707 0 0 0 13.269 5.496c10.364 0 18.766-8.402 18.766-18.766a18.701 18.701 0 0 0-5.496-13.269zm-13.636 22.049a9.146 9.146 0 1 1 0-18.293 9.146 9.146 0 0 1 0 18.293zM63.74 112.127H45.975v-9.244l17.765-5.007zM140.218 112.127h17.766v-9.244l-17.766-5.007zM103.604 52.716H98.02l-5.392 16.177h18.488z"/></g></svg>