<svg version="1" xmlns="http://www.w3.org/2000/svg" width="200" height="200"><path fill="#FFF" d="M-243.887-43.892h883.456v685.466h-883.456z"/><path fill="#BE729B" d="M200 0h201v200H200z"/><path fill="#AF2D24" d="M0 0h200v200H0z"/><path fill="#FFF" d="M29.785 171.247c2.367-.305 4.727-.691 7.102-.902 7.888-.701 11.315-3.756 11.722-11.779.337-6.65-.141-13.345-.334-20.017-.143-4.973-.465-9.942-.59-14.915-.053-2.114.192-4.236.319-6.689h7.317c0 1.803.034 3.735-.006 5.666-.242 11.655-.28 23.32-.884 34.957-.193 3.72-1.635 7.463-2.984 11.014-1.787 4.706-6.234 6.251-10.529 7.805H29.785v-5.14z"/><path d="M83.816 105.11l1.253-7.489h-7.365l.79 8.31h-6.188c-.461-4.481-1.28-8.857-1.25-13.228.026-3.851 1.208-7.683 1.457-11.55.102-1.587-.896-3.247-1.405-4.871-.204-.652-.809-1.68-.599-1.884 3.583-3.472.15-4.76-2.503-6.781 4.896-2.895 9.446-1.728 14.907.496l-5.967 3.159.987 2.051 8.299.496 1.219-15.678-11 .722-1.397-5.833c2.849-.219 5.4-.09 7.759-.704 1.717-.447 3.178-1.875 4.754-2.866-1.662-1.029-3.414-3.04-4.968-2.897-4.14.38-7.004-.099-9.535-4.082-1.339-2.107-5.076-2.691-8.02-4.101l3.186-6.617c30.122 3.491 60.006 1.891 88.924-11.18-2.278 4.165-3.372 7.927.464 11.9-2.69 1.008-4.935 1.537-6.841 2.646-2.222 1.294-4.117 3.14-6.217 4.659-1.076.779-2.216 1.713-3.455 1.978-3.472.743-7.011 1.175-10.549 1.734-1.392 4.119-.601 5.441 3.711 5.351 3.103-.065 6.195-.622 9.765-1.012l-.688 7.348c-4.023.289-7.833.544-11.639.843-2.661.209-3.689 1.514-3.165 4.276.822 4.327 1.388 8.701 2.089 13.227h7.487l-6.161-6.663h14.126c-5.713 3.723-3.335 9.301-3.375 14.259-.064 8.121-.017 16.242-.017 24.694h-5.444c-2.759-1.84 3.036-9.025-5.247-8.282l1.085 9.427h-9.631c-1.55-9.335-1.55-9.335-5.745-8.339l.663 9.388h-7.859c0-5.435.117-10.775-.032-16.107-.154-5.5-.562-10.992-.879-16.487-.024-.419-.429-1.065-.278-1.209 4.051-3.865-.486-5.745-3.155-9.108h15.184l-4.191 7.252 4.635.854 1.301-15.898c-1.565-.146-2.919-.433-4.256-.369-7.398.351-14.789.853-22.189 1.163-3.004.126-3.884 1.553-3.677 4.364.199 2.697.015 5.42.05 8.131.054 4.31.551 4.603 5.777 2.967l-4.171-5.509h12.615c-3.894 2.862-3.051 6.607-2.996 10.258.13 8.673.042 17.348.042 26.285h-5.594v-8.608l-4.914 1.03-.364 8.08c-3.188.004-6.22.004-9.603.004zm1.506-13.971V79.852l-7.278-1.197v13.087l7.278-.603zm51.594.191V79.117c-4.141-1.084-6.026-.119-5.282 4.258.445 2.62.342 5.334.506 8.397l4.776-.442zm-14.902 1.155V78.699l-4.895.383.686 12.924 4.209.479zM93.306 79.653v10.895h5.088V79.653h-5.088zm19.688-29.415c5.852.676 8.249-.446 9.782-4.372-5.825-3.438-9.396-1.921-9.782 4.372zm-10.338 1.712c-.832-6.084-2.937-7.52-6.952-5.552-1.019.499-1.672 1.746-2.494 2.65.862.774 1.619 1.994 2.609 2.228 2.069.488 4.261.456 6.837.674z"/><path fill="#FFF" d="M162.093 140.349c-.678-7.765-5.424-9.162-20.474-6.4-1.365-2.643-.526-4.702 2.267-5.037 5.578-.669 11.254-1.377 16.823-1.019 4.732.304 7.39 3.903 7.74 8.802.223 3.113-.049 6.261-.062 9.393-.019 4.678-.005 9.355-.005 14.279-2.334.739-4.769 3.099-5.976-.293-5.03.562-9.654 1.539-14.263 1.473-5.361-.077-8.655-3.286-9.263-7.775-.632-4.664 1.935-8.685 7.012-10.405 2.678-.907 5.514-1.387 8.307-1.901 2.622-.482 5.282-.756 7.894-1.117zm-4.099 4.265c-3.594 1.162-6.893 1.717-9.581 3.304-1.435.847-2.514 3.512-2.426 5.291.057 1.155 2.482 3.066 3.893 3.109 3.431.106 7.366.158 10.155-1.427 1.625-.924 1.77-5.034 1.85-7.733.022-.791-2.462-1.655-3.891-2.544zM82.924 160.582v-31.699c2.258-.257 5.515-3.769 7.151 1.524 3.617-1.112 6.921-2.55 10.368-3.103 7.77-1.245 13.168 2.751 13.818 10.799.591 7.321.125 14.727.125 22.402h-7.066c.313-3.673.646-7.174.897-10.681.173-2.41.471-4.846.285-7.237-.29-3.714-.673-8.524-4.624-9.283-3.828-.735-8.324.64-12.152 2.082-1.209.455-1.612 4.099-1.69 6.308-.219 6.212-.076 12.436-.076 18.888h-7.036zM123.446 128.46h7.296c0 11.957.305 23.995-.115 36.007-.249 7.107-3.935 10.355-10.85 10.619.4-1.282.412-2.698 1.125-3.369 3.706-3.489 4.225-8.002 4.046-12.579-.317-8.087-1.006-16.159-1.484-24.24-.117-1.959-.018-3.929-.018-6.438zM66.214 128.646l6.446-.69v32.508h-6.446v-31.818zM69.027 123.828c-1.11-1.604-2.973-3.122-3.166-4.829-.358-3.16 2.153-4.728 4.945-4.173 1.569.312 4.123 2.626 3.92 3.5-.471 2.021-2.35 3.714-3.658 5.54l-2.041-.038zM128.016 124.827c-2.156-2.654-4.166-4.012-4.318-5.553-.291-2.956 1.789-4.619 4.861-4.581 2.448.031 4.562 1.056 3.836 3.755-.512 1.905-2.304 3.465-4.379 6.379z"/><path fill="#3B69A2" d="M-201 200H0v201h-201z"/></svg>