<?xml version="1.0" encoding="utf-8"?>
<!-- Generator: Adobe Illustrator 17.0.0, SVG Export Plug-In . SVG Version: 6.00 Build 0)  -->
<!DOCTYPE svg PUBLIC "-//W3C//DTD SVG 1.0//EN" "http://www.w3.org/TR/2001/REC-SVG-20010904/DTD/svg10.dtd">
<svg version="1.0" id="Layer_1" xmlns="http://www.w3.org/2000/svg" xmlns:xlink="http://www.w3.org/1999/xlink" x="0px" y="0px"
	 width="200px" height="200px" viewBox="0 0 200 200" enable-background="new 0 0 200 200" xml:space="preserve">
<rect x="-42.887" y="-43.892" fill="#FFFFFF" width="883.456" height="685.466"/>
<g id="Page_1">
	<path id="Rectangle_1" d="M64.065,73.806H49.454v48.559h15.225V95.403l14.495,17.395l13.808-17.395v26.962h14.459V73.806H92.982
		L79.175,91.779L64.065,73.806z M39.891,52.496h125.822c6.402,0,11.596,5.191,11.596,11.595v68.132
		c0,6.403-5.192,11.595-11.596,11.595H39.891c-6.402,0-11.596-5.191-11.596-11.595V64.091
		C28.296,57.689,33.487,52.496,39.891,52.496z M132.663,74.095h-0.144v24.932h-13.916l21.453,23.338l21.454-23.481h-14.49V74.095
		H132.663z"/>
</g>
<rect y="200" fill="#3B69A2" width="201" height="201"/>
</svg>
