<svg version="1" xmlns="http://www.w3.org/2000/svg" width="200" height="200"><path fill="#FFF" d="M-444.887-43.892h883.456v685.466h-883.456z"/><path fill="#BE729B" d="M-1 0h201v200H-1z"/><path fill="#FFF" d="M99.019 37.459c2.548.491 5.136.837 7.633 1.517a30.86 30.86 0 0 1 5.998 2.327c7.43 3.831 10.616 10.564 9.095 18.789-1.167 6.309-4.115 11.73-8.528 16.267-11.556 11.879-25.846 15.593-41.905 13.409-3.605-.49-6.686-2.43-9.018-5.284-.766-.938-1.216-2.158-1.682-3.301-.112-.275.22-.815.483-1.114.092-.105.694.047.886.25 4.941 5.208 11.197 5.556 17.692 4.651 10.857-1.512 20.348-5.868 27.838-14.062 2.979-3.258 5.238-6.95 6.036-11.396.91-5.067-.904-8.58-5.632-10.676-4.963-2.2-10.211-2.378-15.492-1.897-12.999 1.184-24.454 6.566-35.394 13.262-5.58 3.415-10.84 7.264-14.968 12.415-1.367 1.706-2.612 3.577-3.548 5.547-3.043 6.405-2.444 12.48 2.321 17.869 1.817 2.055 3.856 3.945 5.967 5.702 4.691 3.905 9.491 7.679 14.396 11.627 4.691-2.569 9.651-5.27 14.587-8.015.454-.253.724-.817 1.13-1.179 2.38-2.123 4.722-4.294 7.193-6.307.863-.703 2.02-1.105 3.102-1.469 4.472-1.506 7.436.582 7.587 5.303.04 1.244.006 2.491.006 3.778.252-.122.693-.534 1.063-.479 1.089.162 2.349.255 3.151.877.518.402.628 1.753.441 2.568-.908 3.948-2.062 7.84-2.961 11.791-.526 2.314-.738 4.7-1.091 7.053l.588.217c.287-.403.65-.772.851-1.214 4.532-9.977 9.066-19.952 13.539-29.955.566-1.265.708-2.715 1.206-4.018.221-.577.788-1.366 1.284-1.435 2.157-.299 4.356-.568 6.519-.457 1.725.089 2.099.952 1.493 2.581-1.37 3.685-2.122 7.438-1.137 11.328.437 1.727 1.153 3.384 1.855 5.397.456-.577.722-.834.894-1.144 2.309-4.157 4.756-8.247 6.848-12.511 1.22-2.487 1.94-5.234 2.743-7.907.385-1.282 1.106-2.053 2.358-2.158 1.93-.161 3.893-.352 5.806-.167 1.656.16 2.008.973 1.422 2.522-1.391 3.682-2.2 7.462-1.14 11.321.692 2.518 1.861 4.904 2.855 7.449 4.588-2.172 9.072-3.251 13.797-3.303 5.942-.066 11.477 1.221 16.072 5.185 4.193 3.617 6.575 8.129 5.431 13.822-.725 3.606-3.179 5.939-6.561 7.254-.467.182-1.094-.045-1.646-.083.29-.446.48-1.034.884-1.316 5.234-3.653 5.892-8.914 1.683-13.738-1.826-2.093-4.099-3.537-6.707-4.401-6.46-2.141-12.968-2.287-19.493-.263-.47.146-.92.357-1.367.533.368 1.677.816 3.257 1.046 4.868.391 2.742-.518 5.138-2.281 7.225-2.853 3.376-6.553 5.408-10.763 6.491-3.062.788-5.215-1.22-4.908-4.434.259-2.705 1.222-5.194 2.865-7.327 1.825-2.369 3.851-4.583 5.886-6.978-.715-1.653-1.661-3.535-2.344-5.508-.683-1.971-1.104-4.032-1.707-6.308-.333.574-.561.97-.792 1.363-2.563 4.357-5.1 8.728-7.714 13.054-.462.764-.598 1.342-.242 2.191 1.082 2.579 1.62 5.279 1.181 8.077-.429 2.736-1.783 4.99-3.966 6.692-3.459 2.697-7.41 4.114-11.788 4.333a6.759 6.759 0 0 1-1.348-.07c-2.588-.399-3.538-2.303-2.024-4.442 1.618-2.285 3.489-4.39 5.24-6.581 1.594-1.996 3.199-3.984 4.74-6.021.286-.378.54-1.067.389-1.442-.822-2.039-1.902-3.979-2.65-6.041-.727-2.005-1.162-4.116-1.819-6.521-.355.829-.606 1.381-.83 1.944-3.584 8.99-7.835 17.661-12.681 26.031-.933 1.612-2.242 3.102-3.664 4.312-2.247 1.913-4.973 1.17-5.839-1.653-.603-1.965-.606-4.123-.795-6.203-.071-.785.087-1.592-.044-2.466-.157.307-.32.611-.471.921-1.486 3.059-2.906 6.152-4.478 9.166-.907 1.739-2.282 3.061-4.378 3.311-2.443.291-4.293-.644-5.576-2.737-2.834-4.625-3.806-9.66-3.135-14.993.348-2.762.961-5.491 1.48-8.376l-8.287 4.757c2.478 6.004 2.477 12.01.622 18.019-2.937 9.513-11.6 16.549-21.511 17.335-2.302.183-4.695-.209-6.987-.648-2.293-.439-3.651-2.247-4.552-4.26-2.453-5.476-1.492-10.733 2.004-15.281 2.222-2.892 5.075-5.43 8.035-7.591 3.704-2.704 7.806-4.865 11.744-7.248.629-.381 1.297-.697 2.197-1.176-1.557-1.179-2.926-2.242-4.321-3.268-4.922-3.62-9.972-7.079-14.732-10.9-2.552-2.048-4.727-4.612-6.865-7.12-2.307-2.706-3.544-6-4.396-9.43v-2.707c.366-1.399.654-2.823 1.111-4.191 2.035-6.086 5.758-11.096 10.295-15.496 12.413-12.037 27.438-19.427 43.865-24.175 3.242-.937 6.663-1.255 10.001-1.859l8.724-.001zm-40.055 82.343c-5.195 3.023-10.038 6.118-14.239 10.099-2.597 2.461-4.457 5.391-5.037 9.002-.662 4.116 1.339 6.055 5.403 5.218 3.123-.643 5.806-2.164 8.093-4.343 5.74-5.471 7.715-12.06 5.78-19.976zm19.033 3.196c.309 1.763.481 3.564.966 5.277.438 1.546 1.372 1.658 2.309.369.671-.924 1.303-1.923 1.717-2.98 2.111-5.398 4.206-10.803 6.173-16.255.69-1.913 1.099-3.946 1.441-5.958.227-1.337-.474-1.943-1.668-1.316-1.595.837-3.291 1.849-4.374 3.232-4.017 5.132-6.308 10.979-6.564 17.631zm55.9 1.531c4.688-1.095 7.464-6.12 5.723-10.361-2.843 1.626-6.351 7.975-5.723 10.361zm-14.592-3.64l-7.534 8.825c3.424-.325 7.349-4.891 7.534-8.825z"/></svg>