<svg version="1" xmlns="http://www.w3.org/2000/svg" width="200" height="200"><path fill="#FFF" d="M-645.887-445.892h883.456v685.466h-883.456z"/><g fill="#F35029"><path d="M72.698 45.02c-1.148 1.106-1.97 1.858-2.748 2.654a83111.32 83111.32 0 0 0-44.502 45.523c-5.819 5.958-5.735 11.345.287 17.235 23.157 22.651 46.322 45.295 69.492 67.933 6.278 6.134 11.526 6.04 17.722-.296 22.412-22.92 44.819-45.844 67.226-68.769 6.326-6.473 6.28-11.645-.182-17.964-23-22.491-46.005-44.977-69.017-67.456-.966-.944-1.938-1.909-3.031-2.692-3.56-2.551-8.544-2.962-11.636-.036-5.45 5.156-10.388 10.855-15.649 16.442 5.586 5.466 11.287 11.08 17.054 16.627.556.535 1.539.959 2.288.908 10.678-.718 15.777 4.062 15.783 14.676.001 1.259.705 2.812 1.597 3.726 4.574 4.681 9.238 9.283 14.063 13.702 1.065.976 2.947 1.625 4.39 1.524 6.099-.425 11.144 2.222 13.5 7.492 2.265 5.066 1.15 10.734-2.87 14.582a12.805 12.805 0 0 1-14.733 2.15c-5.08-2.6-7.632-7.932-6.78-13.855.146-1.011.106-2.485-.501-3.1-4.873-4.935-9.904-9.714-15.181-14.827-.09.891-.173 1.308-.169 1.724.141 13.093.232 26.186.532 39.276.029 1.269 1.096 2.816 2.133 3.708 4.161 3.579 5.916 8.934 4.295 14.021-1.704 5.351-6.688 9.08-12.178 9.113-5.406.033-10.32-3.44-12.19-8.614-1.919-5.31-.289-11.08 4.295-14.503 1.524-1.138 2.539-2.121 2.494-4.293-.269-13.09-.303-26.185-.59-39.275-.028-1.292-.911-2.982-1.945-3.764-4.623-3.495-6.312-7.994-5.625-13.639.126-1.036-.114-2.503-.783-3.187C84.102 56.198 78.52 50.77 72.698 45.02z"/><path d="M72.698 45.02c5.822 5.75 11.404 11.179 16.844 16.746.668.684.909 2.151.783 3.187-.687 5.645 1.003 10.144 5.625 13.639 1.034.781 1.916 2.472 1.945 3.764.287 13.09.321 26.184.59 39.275.045 2.172-.97 3.155-2.494 4.293-4.584 3.422-6.214 9.193-4.295 14.503 1.87 5.175 6.784 8.647 12.19 8.614 5.49-.033 10.473-3.763 12.178-9.113 1.62-5.087-.134-10.443-4.295-14.021-1.037-.892-2.104-2.439-2.133-3.708-.3-13.089-.391-26.183-.532-39.276-.004-.416.078-.832.169-1.724 5.278 5.113 10.308 9.893 15.181 14.827.607.615.647 2.089.501 3.1-.852 5.923 1.7 11.255 6.78 13.855a12.805 12.805 0 0 0 14.733-2.15c4.02-3.848 5.135-9.516 2.87-14.582-2.356-5.27-7.401-7.917-13.5-7.492-1.443.101-3.325-.549-4.39-1.524-4.825-4.419-9.489-9.022-14.063-13.702-.893-.914-1.597-2.467-1.597-3.726-.006-10.614-5.106-15.395-15.783-14.676-.749.05-1.732-.374-2.288-.908-5.767-5.547-11.468-11.162-17.054-16.627 5.261-5.587 10.199-11.285 15.649-16.442 3.092-2.926 8.076-2.516 11.636.036 1.093.783 2.065 1.748 3.031 2.692 23.011 22.48 46.017 44.965 69.017 67.456 6.462 6.319 6.508 11.491.182 17.964a436007.026 436007.026 0 0 1-67.226 68.769c-6.196 6.336-11.443 6.43-17.722.296-23.17-22.638-46.335-45.281-69.492-67.933-6.021-5.89-6.106-11.277-.287-17.235C40.275 78.015 55.113 62.844 69.95 47.673c.778-.795 1.6-1.547 2.748-2.653z"/></g></svg>