<svg version="1" xmlns="http://www.w3.org/2000/svg" width="200" height="200"><path fill="#FFF" d="M-42.887-445.892h883.456v685.466H-42.887z"/><path fill="#9CDAF1" d="M146.466 160.219c0 8.858-20.518 16.038-45.825 16.038-25.311 0-45.829-7.18-45.829-16.038s20.517-16.04 45.829-16.04c25.307 0 45.825 7.183 45.825 16.04z"/><path fill="#7DBBE6" d="M88.186 175.66v-11.433c0-1.476-.267-2.711-.713-3.754 2.956 2.296 3.156 8.065 3.156 8.065v7.336c2.66.208 5.408.333 8.22.371l-.074-7.3c-.407-9.978-8.96-11.2-8.96-11.2-3.126-.71-3.079.859-2.765 1.872-3.066-5.23-11.285-4.554-11.285-4.554-2.852 1.017-.205 2.85-.205 2.85 4.481 1.629 4.888 6.516 4.888 6.516v10.191c2.468.423 5.052.772 7.74 1.035l-.002.005zM124.231 155.064s-8.219-.676-11.286 4.555c.314-1.013.362-2.584-2.765-1.873 0 0-8.552 1.222-8.959 11.2l-.075 7.311c2.808-.011 5.555-.11 8.22-.289v-7.428s.201-5.769 3.156-8.065c-.446 1.043-.713 2.277-.713 3.754v11.551c2.681-.235 5.268-.552 7.738-.944v-10.403s.407-4.888 4.888-6.517c0-.004 2.645-1.838-.207-2.856l.003.004z"/><path d="M181.514 93.734l.121-.599c-13.443-2.688-27.239-2.715-35.586-2.369 1.371-4.94 1.784-10.625 1.784-16.963 0-9.091-3.415-16.365-8.961-21.898.969-3.128 2.263-10.073-1.292-18.966 0 0-6.274-1.992-20.462 7.505-5.559-1.389-11.474-2.075-17.398-2.075-6.518 0-13.105.83-19.247 2.515-14.642-9.989-21.106-7.943-21.106-7.943-4.219 10.551-1.61 18.363-.818 20.304-4.959 5.352-7.987 12.185-7.987 20.56 0 6.324.72 11.997 2.478 16.928-8.417-.306-21.71-.188-34.674 2.404l.119.599c13.042-2.608 26.419-2.699 34.785-2.382a30.596 30.596 0 0 0 1.303 2.968c-8.273.266-22.4 1.321-35.938 5.141l.167.586c13.645-3.847 27.895-4.875 36.087-5.126 4.943 9.214 14.689 15.165 32.026 17.034-2.461 1.654-4.971 4.465-5.988 9.221-3.353 1.604-13.969 5.519-20.338-5.435 0 0-3.565-6.518-10.389-7.028 0 0-6.62-.102-.457 4.125 0 0 4.429 2.087 7.485 9.931 0 0 3.987 13.378 23.225 9.086v13.819s-.407 4.888-4.888 6.516c0 0-2.648 1.833.205 2.85 0 0 12.421 1.019 12.421-9.162v-15.069s-.493-5.976 2.443-8.053v24.75s-.203 5.905-3.258 8.146c0 0-2.038 3.664 2.443 2.647 0 0 8.552-1.222 8.96-11.2l.194-25.048h2.056l.196 25.048c.407 9.978 8.959 11.2 8.959 11.2 4.479 1.017 2.443-2.647 2.443-2.647-3.054-2.24-3.258-8.146-3.258-8.146v-24.537c2.934 2.285 2.443 7.839 2.443 7.839v15.068c0 10.181 12.421 9.162 12.421 9.162 2.85-1.017.205-2.85.205-2.85-4.481-1.629-4.888-6.517-4.888-6.517V125.92c0-7.703-3.243-11.782-6.415-13.935 18.49-1.834 27.363-7.804 31.452-17.08 8.099.223 22.674 1.209 36.615 5.142l.166-.586c-13.862-3.91-28.341-4.922-36.522-5.16.388-.938.726-1.912 1.026-2.914 8.305-.345 22.166-.341 35.661 2.355l-.019-.008z"/><path fill="#F4CBB2" d="M129.749 73.376c3.983 3.608 6.312 7.965 6.312 12.659 0 21.918-16.339 22.512-36.491 22.512-20.156 0-36.493-3.035-36.493-22.512 0-4.663 2.297-8.993 6.23-12.586 6.561-5.988 17.665-2.818 30.263-2.818 12.541-.002 23.607-3.205 30.177 2.742l.002.003z"/><path fill="#FFF" d="M87.431 87.15c0 6.037-3.4 10.93-7.593 10.93s-7.593-4.893-7.593-10.93c0-6.036 3.4-10.928 7.593-10.928 4.194.005 7.593 4.893 7.593 10.928zm40.739 0c0 6.037-3.4 10.93-7.593 10.93s-7.593-4.893-7.593-10.93c0-6.036 3.4-10.928 7.593-10.928 4.193.005 7.593 4.893 7.593 10.928z"/><path fill="#AD5C51" d="M84.998 87.288c0 4.024-2.269 7.285-5.062 7.285s-5.062-3.261-5.062-7.285c0-4.026 2.267-7.288 5.062-7.288 2.791 0 5.06 3.261 5.06 7.286l.002.002zm40.734 0c0 4.024-2.269 7.285-5.062 7.285s-5.062-3.261-5.062-7.285c0-4.026 2.267-7.288 5.062-7.288 2.792 0 5.061 3.261 5.061 7.286l.001.002z"/><circle fill="#AD5C51" cx="99.683" cy="96.857" r="1.899"/><path fill="#AD5C51" d="M95.253 101.659a.61.61 0 0 1 1.15-.408c.489 1.38 1.798 2.307 3.258 2.307s2.768-.926 3.258-2.307a.611.611 0 0 1 1.15.408 4.686 4.686 0 0 1-4.408 3.119 4.675 4.675 0 0 1-4.405-3.115l-.003-.004z"/><path fill="#C3E4D8" d="M53.151 110.343c0 .507-.594.916-1.324.916-.73 0-1.324-.409-1.324-.916 0-.507.594-.917 1.324-.917.731 0 1.324.41 1.324.919v-.002zm3.667 2.036c0 .507-.594.916-1.324.916-.73 0-1.324-.409-1.324-.916 0-.507.594-.918 1.324-.918.731 0 1.324.41 1.324.919v-.001zm2.241 2.649c0 .506-.594.916-1.324.916-.73 0-1.324-.409-1.324-.916 0-.507.594-.917 1.324-.917.731 0 1.324.41 1.324.919v-.002zm2.036 3.055c0 .507-.594.916-1.324.916-.73 0-1.324-.409-1.324-.916 0-.507.594-.918 1.324-.918.731 0 1.324.41 1.324.919v-.001zm2.238 2.851c0 .507-.594.916-1.324.916-.73 0-1.324-.409-1.324-.916 0-.507.594-.918 1.324-.918.731 0 1.324.41 1.324.919v-.001zm3.059 2.442c0 .507-.594.916-1.324.916-.73 0-1.324-.409-1.324-.916 0-.507.594-.917 1.324-.917.731 0 1.324.41 1.324.919v-.002zm4.275 1.631c0 .507-.594.916-1.324.916-.73 0-1.324-.409-1.324-.916 0-.507.594-.917 1.324-.917.731 0 1.324.41 1.324.919v-.002zm4.258 0c0 .507-.594.916-1.324.916-.73 0-1.324-.409-1.324-.916 0-.507.594-.917 1.324-.917.731 0 1.324.41 1.324.919v-.002zm4.319-.708c0 .506-.594.916-1.324.916-.73 0-1.324-.409-1.324-.916 0-.507.594-.918 1.324-.918.731 0 1.324.41 1.324.919v-.001z"/><path fill="#9CDAF1" d="M48.288 113.061l-1.323 4.608s-.345 1.666 1.225 1.961c1.639-.032 1.504-1.565 1.39-2.063l-1.292-4.506z"/></svg>