<?xml version="1.0" encoding="utf-8"?>
<!-- Generator: Adobe Illustrator 17.0.0, SVG Export Plug-In . SVG Version: 6.00 Build 0)  -->
<!DOCTYPE svg PUBLIC "-//W3C//DTD SVG 1.0//EN" "http://www.w3.org/TR/2001/REC-SVG-20010904/DTD/svg10.dtd">
<svg version="1.0" id="Layer_1" xmlns="http://www.w3.org/2000/svg" xmlns:xlink="http://www.w3.org/1999/xlink" x="0px" y="0px"
	 width="200px" height="200px" viewBox="0 0 200 200" enable-background="new 0 0 200 200" xml:space="preserve">
<rect x="-243.887" y="-244.892" fill="#FFFFFF" width="883.456" height="685.466"/>
<rect x="-201" y="-1" fill="#3B69A2" width="201" height="201"/>
<g>
	<polygon fill="#4D8FEF" points="60.547,175.72 19.114,103.956 60.547,32.192 143.412,32.192 184.845,103.956 143.412,175.72 	"/>
	<polygon fill="#4886DD" points="45.975,112.127 106.677,175.72 143.412,175.72 174.384,122.075 103.604,52.716 92.628,73.611 
		70.441,94.205 	"/>
	<g>
		<path fill="#F9FCFF" d="M101.872,73.611c-18.932,0-34.28,15.348-34.28,34.28c0,18.932,15.347,34.28,34.28,34.28
			c18.932,0,34.28-15.348,34.28-34.28C136.151,88.958,120.804,73.611,101.872,73.611z M101.872,134.552
			c-14.725,0-26.662-11.937-26.662-26.662c0-14.725,11.937-26.662,26.662-26.662c14.725,0,26.662,11.937,26.662,26.662
			C128.534,122.615,116.597,134.552,101.872,134.552z"/>
		<path fill="#F9FCFF" d="M115.315,94.205l-4.163,4.163c-2.358-2.554-5.723-4.163-9.473-4.163c-7.126,0-12.903,5.777-12.903,12.903
			c0,3.75,1.609,7.115,4.163,9.473l-4.163,4.163c3.396,3.396,8.088,5.496,13.269,5.496c10.364,0,18.766-8.402,18.766-18.766
			C120.812,102.292,118.711,97.601,115.315,94.205z M101.679,116.254c-5.051,0-9.146-4.095-9.146-9.146
			c0-5.051,4.095-9.146,9.146-9.146c5.051,0,9.146,4.095,9.146,9.146C110.825,112.159,106.73,116.254,101.679,116.254z"/>
		<polygon fill="#F9FCFF" points="63.74,112.127 45.975,112.127 45.975,102.883 63.74,97.876 		"/>
		<polygon fill="#F9FCFF" points="140.218,112.127 157.984,112.127 157.984,102.883 140.218,97.876 		"/>
		<polygon fill="#F9FCFF" points="103.604,52.716 98.02,52.716 92.628,68.893 111.116,68.893 		"/>
	</g>
</g>
</svg>
