<?xml version="1.0" encoding="utf-8"?>
<!-- Generator: Adobe Illustrator 17.0.0, SVG Export Plug-In . SVG Version: 6.00 Build 0)  -->
<!DOCTYPE svg PUBLIC "-//W3C//DTD SVG 1.0//EN" "http://www.w3.org/TR/2001/REC-SVG-20010904/DTD/svg10.dtd">
<svg version="1.0" id="Layer_1" xmlns="http://www.w3.org/2000/svg" xmlns:xlink="http://www.w3.org/1999/xlink" x="0px" y="0px"
	 width="200px" height="200px" viewBox="0 0 200 200" enable-background="new 0 0 200 200" xml:space="preserve">
<rect x="-645.887" y="-445.892" fill="#FFFFFF" width="883.456" height="685.466"/>
<g id="ow6lx9.tif">
	<g>
		<path fill="#F35029" d="M72.698,45.02c-1.148,1.106-1.97,1.858-2.748,2.654c-14.838,15.17-29.675,30.341-44.502,45.523
			c-5.819,5.958-5.735,11.345,0.287,17.235c23.157,22.651,46.322,45.295,69.492,67.933c6.278,6.134,11.526,6.04,17.722-0.296
			c22.412-22.92,44.819-45.844,67.226-68.769c6.326-6.473,6.28-11.645-0.182-17.964c-23-22.491-46.005-44.977-69.017-67.456
			c-0.966-0.944-1.938-1.909-3.031-2.692c-3.56-2.551-8.544-2.962-11.636-0.036c-5.45,5.156-10.388,10.855-15.649,16.442
			c5.586,5.466,11.287,11.08,17.054,16.627c0.556,0.535,1.539,0.959,2.288,0.908c10.678-0.718,15.777,4.062,15.783,14.676
			c0.001,1.259,0.705,2.812,1.597,3.726c4.574,4.681,9.238,9.283,14.063,13.702c1.065,0.976,2.947,1.625,4.39,1.524
			c6.099-0.425,11.144,2.222,13.5,7.492c2.265,5.066,1.15,10.734-2.87,14.582c-3.963,3.794-9.844,4.652-14.733,2.15
			c-5.08-2.6-7.632-7.932-6.78-13.855c0.146-1.011,0.106-2.485-0.501-3.1c-4.873-4.935-9.904-9.714-15.181-14.827
			c-0.09,0.891-0.173,1.308-0.169,1.724c0.141,13.093,0.232,26.186,0.532,39.276c0.029,1.269,1.096,2.816,2.133,3.708
			c4.161,3.579,5.916,8.934,4.295,14.021c-1.704,5.351-6.688,9.08-12.178,9.113c-5.406,0.033-10.32-3.44-12.19-8.614
			c-1.919-5.31-0.289-11.08,4.295-14.503c1.524-1.138,2.539-2.121,2.494-4.293c-0.269-13.09-0.303-26.185-0.59-39.275
			c-0.028-1.292-0.911-2.982-1.945-3.764c-4.623-3.495-6.312-7.994-5.625-13.639c0.126-1.036-0.114-2.503-0.783-3.187
			C84.102,56.198,78.52,50.77,72.698,45.02z"/>
		<path fill="#F35029" d="M72.698,45.02c5.822,5.75,11.404,11.179,16.844,16.746c0.668,0.684,0.909,2.151,0.783,3.187
			c-0.687,5.645,1.003,10.144,5.625,13.639c1.034,0.781,1.916,2.472,1.945,3.764c0.287,13.09,0.321,26.184,0.59,39.275
			c0.045,2.172-0.97,3.155-2.494,4.293c-4.584,3.422-6.214,9.193-4.295,14.503c1.87,5.175,6.784,8.647,12.19,8.614
			c5.49-0.033,10.473-3.763,12.178-9.113c1.62-5.087-0.134-10.443-4.295-14.021c-1.037-0.892-2.104-2.439-2.133-3.708
			c-0.3-13.089-0.391-26.183-0.532-39.276c-0.004-0.416,0.078-0.832,0.169-1.724c5.278,5.113,10.308,9.893,15.181,14.827
			c0.607,0.615,0.647,2.089,0.501,3.1c-0.852,5.923,1.7,11.255,6.78,13.855c4.889,2.502,10.77,1.644,14.733-2.15
			c4.02-3.848,5.135-9.516,2.87-14.582c-2.356-5.27-7.401-7.917-13.5-7.492c-1.443,0.101-3.325-0.549-4.39-1.524
			c-4.825-4.419-9.489-9.022-14.063-13.702c-0.893-0.914-1.597-2.467-1.597-3.726c-0.006-10.614-5.106-15.395-15.783-14.676
			c-0.749,0.05-1.732-0.374-2.288-0.908c-5.767-5.547-11.468-11.162-17.054-16.627c5.261-5.587,10.199-11.285,15.649-16.442
			c3.092-2.926,8.076-2.516,11.636,0.036c1.093,0.783,2.065,1.748,3.031,2.692c23.011,22.48,46.017,44.965,69.017,67.456
			c6.462,6.319,6.508,11.491,0.182,17.964c-22.407,22.925-44.814,45.849-67.226,68.769c-6.196,6.336-11.443,6.43-17.722,0.296
			c-23.17-22.638-46.335-45.281-69.492-67.933c-6.021-5.89-6.106-11.277-0.287-17.235C40.275,78.015,55.113,62.844,69.95,47.673
			C70.728,46.878,71.55,46.126,72.698,45.02z"/>
	</g>
</g>
</svg>
