<?xml version="1.0" encoding="utf-8"?>
<!-- Generator: Adobe Illustrator 17.0.0, SVG Export Plug-In . SVG Version: 6.00 Build 0)  -->
<!DOCTYPE svg PUBLIC "-//W3C//DTD SVG 1.0//EN" "http://www.w3.org/TR/2001/REC-SVG-20010904/DTD/svg10.dtd">
<svg version="1.0" id="Layer_1" xmlns="http://www.w3.org/2000/svg" xmlns:xlink="http://www.w3.org/1999/xlink" x="0px" y="0px"
	 width="200px" height="200px" viewBox="0 0 200 200" enable-background="new 0 0 200 200" xml:space="preserve">
<rect x="-243.887" y="-43.892" fill="#FFFFFF" width="883.456" height="685.466"/>
<rect x="200" fill="#BE729B" width="201" height="200"/>
<rect fill="#AF2D24" width="200" height="200"/>
<path fill="#FFFFFF" d="M29.785,171.247c2.367-0.305,4.727-0.691,7.102-0.902c7.888-0.701,11.315-3.756,11.722-11.779
	c0.337-6.65-0.141-13.345-0.334-20.017c-0.143-4.973-0.465-9.942-0.59-14.915c-0.053-2.114,0.192-4.236,0.319-6.689
	c2.371,0,4.56,0,7.317,0c0,1.803,0.034,3.735-0.006,5.666c-0.242,11.655-0.28,23.32-0.884,34.957
	c-0.193,3.72-1.635,7.463-2.984,11.014c-1.787,4.706-6.234,6.251-10.529,7.805c-3.711,0-7.422,0-11.133,0
	C29.785,174.673,29.785,172.96,29.785,171.247z"/>
<path d="M83.816,105.11c0.433-2.589,0.805-4.81,1.253-7.489c-2.564,0-4.73,0-7.365,0c0.272,2.866,0.52,5.468,0.79,8.31
	c-2.128,0-4.059,0-6.188,0c-0.461-4.481-1.28-8.857-1.25-13.228c0.026-3.851,1.208-7.683,1.457-11.55
	c0.102-1.587-0.896-3.247-1.405-4.871c-0.204-0.652-0.809-1.68-0.599-1.884c3.583-3.472,0.15-4.76-2.503-6.781
	c4.896-2.895,9.446-1.728,14.907,0.496c-1.989,1.053-3.978,2.106-5.967,3.159c0.329,0.684,0.658,1.367,0.987,2.051
	c2.619,0.157,5.238,0.313,8.299,0.496c0.412-5.301,0.792-10.179,1.219-15.678c-3.899,0.256-7.226,0.474-11,0.722
	c-0.424-1.769-0.836-3.491-1.397-5.833c2.849-0.219,5.4-0.09,7.759-0.704c1.717-0.447,3.178-1.875,4.754-2.866
	c-1.662-1.029-3.414-3.04-4.968-2.897c-4.14,0.38-7.004-0.099-9.535-4.082c-1.339-2.107-5.076-2.691-8.02-4.101
	c0.899-1.868,1.973-4.098,3.186-6.617c30.122,3.491,60.006,1.891,88.924-11.18c-2.278,4.165-3.372,7.927,0.464,11.9
	c-2.69,1.008-4.935,1.537-6.841,2.646c-2.222,1.294-4.117,3.14-6.217,4.659c-1.076,0.779-2.216,1.713-3.455,1.978
	c-3.472,0.743-7.011,1.175-10.549,1.734c-1.392,4.119-0.601,5.441,3.711,5.351c3.103-0.065,6.195-0.622,9.765-1.012
	c-0.241,2.577-0.457,4.883-0.688,7.348c-4.023,0.289-7.833,0.544-11.639,0.843c-2.661,0.209-3.689,1.514-3.165,4.276
	c0.822,4.327,1.388,8.701,2.089,13.227c2.215,0,4.159,0,7.487,0c-2.266-2.451-3.83-4.142-6.161-6.663c5.212,0,9.669,0,14.126,0
	c-5.713,3.723-3.335,9.301-3.375,14.259c-0.064,8.121-0.017,16.242-0.017,24.694c-1.797,0-3.558,0-5.444,0
	c-2.759-1.84,3.036-9.025-5.247-8.282c0.365,3.173,0.698,6.066,1.085,9.427c-3.266,0-6.459,0-9.631,0
	c-1.55-9.335-1.55-9.335-5.745-8.339c0.211,2.983,0.426,6.033,0.663,9.388c-2.79,0-5.137,0-7.859,0
	c0-5.435,0.117-10.775-0.032-16.107c-0.154-5.5-0.562-10.992-0.879-16.487c-0.024-0.419-0.429-1.065-0.278-1.209
	c4.051-3.865-0.486-5.745-3.155-9.108c5.84,0,10.415,0,15.184,0c-1.645,2.846-2.918,5.049-4.191,7.252
	c1.43,0.263,2.86,0.527,4.635,0.854c0.451-5.513,0.854-10.436,1.301-15.898c-1.565-0.146-2.919-0.433-4.256-0.369
	c-7.398,0.351-14.789,0.853-22.189,1.163c-3.004,0.126-3.884,1.553-3.677,4.364c0.199,2.697,0.015,5.42,0.05,8.131
	c0.054,4.31,0.551,4.603,5.777,2.967c-1.254-1.657-2.385-3.151-4.171-5.509c4.638,0,8.627,0,12.615,0
	c-3.894,2.862-3.051,6.607-2.996,10.258c0.13,8.673,0.042,17.348,0.042,26.285c-2.002,0-3.767,0-5.594,0c0-2.86,0-5.524,0-8.608
	c-1.828,0.383-3.279,0.687-4.914,1.03c-0.122,2.703-0.236,5.229-0.364,8.08C90.231,105.11,87.199,105.11,83.816,105.11z
	 M85.322,91.139c0-4.238,0-7.711,0-11.287c-2.401-0.395-4.745-0.781-7.278-1.197c0,4.456,0,8.627,0,13.087
	C80.579,91.532,82.792,91.348,85.322,91.139z M136.916,91.33c0-4.508,0-8.41,0-12.213c-4.141-1.084-6.026-0.119-5.282,4.258
	c0.445,2.62,0.342,5.334,0.506,8.397C133.755,91.622,135.242,91.484,136.916,91.33z M122.014,92.485c0-4.898,0-9.207,0-13.786
	c-1.791,0.14-3.255,0.255-4.895,0.383c0.243,4.588,0.459,8.65,0.686,12.924C119.249,92.17,120.468,92.309,122.014,92.485z
	 M93.306,79.653c0,3.968,0,7.443,0,10.895c1.914,0,3.52,0,5.088,0c0-3.803,0-7.271,0-10.895
	C96.564,79.653,95.061,79.653,93.306,79.653z M112.994,50.238c5.852,0.676,8.249-0.446,9.782-4.372
	C116.951,42.428,113.38,43.945,112.994,50.238z M102.656,51.95c-0.832-6.084-2.937-7.52-6.952-5.552
	c-1.019,0.499-1.672,1.746-2.494,2.65c0.862,0.774,1.619,1.994,2.609,2.228C97.888,51.764,100.08,51.732,102.656,51.95z"/>
<path fill="#FFFFFF" d="M162.093,140.349c-0.678-7.765-5.424-9.162-20.474-6.4c-1.365-2.643-0.526-4.702,2.267-5.037
	c5.578-0.669,11.254-1.377,16.823-1.019c4.732,0.304,7.39,3.903,7.74,8.802c0.223,3.113-0.049,6.261-0.062,9.393
	c-0.019,4.678-0.005,9.355-0.005,14.279c-2.334,0.739-4.769,3.099-5.976-0.293c-5.03,0.562-9.654,1.539-14.263,1.473
	c-5.361-0.077-8.655-3.286-9.263-7.775c-0.632-4.664,1.935-8.685,7.012-10.405c2.678-0.907,5.514-1.387,8.307-1.901
	C156.821,140.984,159.481,140.71,162.093,140.349z M157.994,144.614c-3.594,1.162-6.893,1.717-9.581,3.304
	c-1.435,0.847-2.514,3.512-2.426,5.291c0.057,1.155,2.482,3.066,3.893,3.109c3.431,0.106,7.366,0.158,10.155-1.427
	c1.625-0.924,1.77-5.034,1.85-7.733C161.907,146.367,159.423,145.503,157.994,144.614z"/>
<path fill="#FFFFFF" d="M82.924,160.582c0-10.692,0-21.016,0-31.699c2.258-0.257,5.515-3.769,7.151,1.524
	c3.617-1.112,6.921-2.55,10.368-3.103c7.77-1.245,13.168,2.751,13.818,10.799c0.591,7.321,0.125,14.727,0.125,22.402
	c-2.333,0-4.497,0-7.066,0c0.313-3.673,0.646-7.174,0.897-10.681c0.173-2.41,0.471-4.846,0.285-7.237
	c-0.29-3.714-0.673-8.524-4.624-9.283c-3.828-0.735-8.324,0.64-12.152,2.082c-1.209,0.455-1.612,4.099-1.69,6.308
	c-0.219,6.212-0.076,12.436-0.076,18.888C88.011,160.582,85.93,160.582,82.924,160.582z"/>
<path fill="#FFFFFF" d="M123.446,128.46c2.326,0,4.279,0,7.296,0c0,11.957,0.305,23.995-0.115,36.007
	c-0.249,7.107-3.935,10.355-10.85,10.619c0.4-1.282,0.412-2.698,1.125-3.369c3.706-3.489,4.225-8.002,4.046-12.579
	c-0.317-8.087-1.006-16.159-1.484-24.24C123.347,132.939,123.446,130.969,123.446,128.46z"/>
<path fill="#FFFFFF" d="M66.214,128.646c1.928-0.206,3.869-0.414,6.446-0.69c0,10.796,0,21.475,0,32.508c-1.681,0-3.831,0-6.446,0
	C66.214,150.017,66.214,139.597,66.214,128.646z"/>
<path fill="#FFFFFF" d="M69.027,123.828c-1.11-1.604-2.973-3.122-3.166-4.829c-0.358-3.16,2.153-4.728,4.945-4.173
	c1.569,0.312,4.123,2.626,3.92,3.5c-0.471,2.021-2.35,3.714-3.658,5.54C70.388,123.853,69.707,123.84,69.027,123.828z"/>
<path fill="#FFFFFF" d="M128.016,124.827c-2.156-2.654-4.166-4.012-4.318-5.553c-0.291-2.956,1.789-4.619,4.861-4.581
	c2.448,0.031,4.562,1.056,3.836,3.755C131.883,120.353,130.091,121.913,128.016,124.827z"/>
<rect x="-201" y="200" fill="#3B69A2" width="201" height="201"/>
</svg>
