<?xml version="1.0" encoding="utf-8"?>
<!-- Generator: Adobe Illustrator 17.0.0, SVG Export Plug-In . SVG Version: 6.00 Build 0)  -->
<!DOCTYPE svg PUBLIC "-//W3C//DTD SVG 1.0//EN" "http://www.w3.org/TR/2001/REC-SVG-20010904/DTD/svg10.dtd">
<svg version="1.0" id="Layer_1" xmlns="http://www.w3.org/2000/svg" xmlns:xlink="http://www.w3.org/1999/xlink" x="0px" y="0px"
	 width="200px" height="200px" viewBox="0 0 200 200" enable-background="new 0 0 200 200" xml:space="preserve">
<rect x="-444.887" y="-244.892" fill="#FFFFFF" width="883.456" height="685.466"/>
<polygon fill="#4D8FEF" points="60.567,175.72 19.134,103.956 60.567,32.192 143.433,32.192 184.866,103.956 143.433,175.72 "/>
<polygon fill="#4886DD" points="132,83.6 72,100.992 79.158,107.003 72,106.92 72,124.063 123.657,175.72 143.433,175.72 
	173.221,124.124 "/>
<path fill="#FDFFFF" d="M72,83.6v17.391h60V83.6H72z M122.513,95.575c-1.811,0-3.279-1.468-3.279-3.279
	c0-1.811,1.468-3.279,3.279-3.279c1.811,0,3.279,1.468,3.279,3.279C125.792,94.107,124.324,95.575,122.513,95.575z"/>
<path fill="#FDFFFF" d="M72,106.92v17.391h60V106.92H72z M122.513,118.895c-1.811,0-3.279-1.468-3.279-3.279
	c0-1.811,1.468-3.279,3.279-3.279c1.811,0,3.279,1.468,3.279,3.279C125.792,117.427,124.324,118.895,122.513,118.895z"/>
</svg>
