<svg version="1" xmlns="http://www.w3.org/2000/svg" width="200" height="200"><path fill="#FFF" d="M-645.887-244.892h883.456v685.466h-883.456z"/><g fill="#F4AC36"><path d="M21.085 108.633c.16-2.365.409-4.728.459-7.095.078-3.721.021-7.445.021-11.601 2.112.25 3.708.222 5.169.653 4.33 1.279 8.651 2.621 12.87 4.215 1.025.387 2.332 1.826 2.348 2.801.149 8.654.038 17.313-.009 25.97-.001.215-.145.429-.322.922a65.492 65.492 0 0 1-20.536-8.22v-7.645zM117.134 40.3l13.568 3.967c-7.966 7.359-21.578 7.306-29.739-.049l12.348-3.918h3.823zM165.875 40.3l12.37 3.943c-9.362 7.453-20.079 7.433-29.395-.041l13.202-3.902h3.823zM65.895 167.481c-5.892-2.297-11.818-4.516-17.641-6.976-.871-.368-1.69-1.822-1.806-2.854a281.007 281.007 0 0 1-1.312-15.635c-.188-3.385-.035-6.789-.035-10.709 2.416.528 4.351.807 6.192 1.383 4.465 1.396 8.92 2.842 13.298 4.484.865.324 1.936 1.608 1.949 2.465.141 9.045.088 18.094.088 27.141l-.733.701zM161.495 69.548c0 3.736.032 7.472-.012 11.208-.026 2.232-.894 3.03-2.98 2.316a319.387 319.387 0 0 1-15.83-5.887c-.768-.309-1.556-1.666-1.577-2.557a872.609 872.609 0 0 1-.236-22.881c.006-3.239.692-3.865 3.709-2.985a210.475 210.475 0 0 1 14.658 4.886c2.485.927 2.608 3.356 2.605 5.651-.004 3.416-.001 6.832-.001 10.249h-.336zM69.723 89.314c7.168.958 13.462 3.029 19.27 6.485.53.315.961 1.25.977 1.908.187 7.794.306 15.59.398 23.386.03 2.512-1.032 3.602-3.39 2.796-5.551-1.897-10.983-4.145-16.436-6.317-.385-.153-.783-.853-.785-1.301-.045-8.88-.034-17.761-.034-26.957zM94.3 48.291c4.397 1.355 8.943 2.691 13.446 4.159 5.895 1.923 5.921 1.968 5.963 8.293.047 7.137.011 14.274.011 21.783-6.539-1.85-12.42-3.485-18.271-5.222-.487-.144-1.096-.971-1.1-1.484-.067-9.052-.049-18.105-.049-27.529zM166.091 84.097c-.14-2.334-.338-4.139-.341-5.944-.013-6.839.109-13.679.023-20.517-.029-2.317.996-3.5 3.03-4.22 4.041-1.43 8.046-2.962 12.084-4.399 3.106-1.105 4.28-.233 4.25 3.017-.07 7.554-.16 15.109-.16 22.664 0 1.68-.583 2.412-2.23 2.994-3.51 1.241-6.861 2.924-10.322 4.313-1.892.76-3.878 1.291-6.334 2.092zM113.045 89.35c.233 2.751.585 5.257.629 7.768.098 5.573.045 11.148.048 16.722.001 1.954-.533 3.812-2.406 4.599-4.75 1.997-9.575 3.817-14.401 5.626-2.019.757-2.609-.179-2.572-2.21.147-7.962.188-15.926.182-23.889-.001-1.449.299-2.323 1.796-2.849 4.719-1.66 9.384-3.474 14.082-5.192.72-.263 1.509-.335 2.642-.575zM90.069 131.951c0 6.799.185 13.239-.044 19.664-.328 9.228 1.115 8.071-7.589 11.29-3.241 1.198-6.603 2.073-9.926 3.04-.407.118-.916-.112-1.504-.199-.071-.589-.191-1.119-.191-1.649 0-7.486-.002-14.972.039-22.458.017-3.123.868-4.293 3.808-5.277a705.611 705.611 0 0 1 12.232-3.963c.737-.233 1.549-.229 3.175-.448zM135.597 48.52c.428 9.18.86 17.911 1.187 26.646.022.59-.615 1.504-1.18 1.77-4.889 2.301-9.821 4.513-14.764 6.695-1.457.644-2.155-.21-2.16-1.557a2705.73 2705.73 0 0 1 .01-25.323c.008-1.572.847-2.633 2.423-3.169 4.657-1.583 9.291-3.241 14.484-5.062zM47.565 123.912c-.15-4.536-.362-8.957-.425-13.38-.057-3.972.1-7.947.06-11.919-.019-1.906.714-3.279 2.452-3.945 4.066-1.558 8.148-3.083 12.269-4.486 2.105-.717 2.431.832 2.455 2.393.082 5.483.128 10.966.18 16.449.019 1.987.266 4.016-.063 5.945-.228 1.34-.957 3.23-1.989 3.689-4.471 1.988-9.134 3.546-13.734 5.239-.268.1-.603.015-1.205.015zM83.695 128.43c-5.644 1.8-10.445 5.418-15.91 4.877-5.035-.498-9.883-2.877-15.124-4.525 5.638-5.775 23.301-5.923 31.034-.352zM28.896 86.91c4.241-6.667 22.791-6.88 30.118-.203-5.343 1.52-10.273 4.002-15.214 4.025-4.916.023-9.845-2.422-14.904-3.822zM77.297 86.402c6.835-5.978 22.268-7.007 28.959-.184-9.86 5.801-16.458 5.843-28.959.184z"/></g></svg>