<?xml version="1.0" encoding="utf-8"?>
<!-- Generator: Adobe Illustrator 17.0.0, SVG Export Plug-In . SVG Version: 6.00 Build 0)  -->
<!DOCTYPE svg PUBLIC "-//W3C//DTD SVG 1.0//EN" "http://www.w3.org/TR/2001/REC-SVG-20010904/DTD/svg10.dtd">
<svg version="1.0" id="Layer_1" xmlns="http://www.w3.org/2000/svg" xmlns:xlink="http://www.w3.org/1999/xlink" x="0px" y="0px"
	 width="200px" height="200px" viewBox="0 0 200 200" enable-background="new 0 0 200 200" xml:space="preserve">
<rect x="-444.887" y="-43.892" fill="#FFFFFF" width="883.456" height="685.466"/>
<rect x="-1" fill="#BE729B" width="201" height="200"/>
<g>
	<path fill="#FFFFFF" d="M99.019,37.459c2.548,0.491,5.136,0.837,7.633,1.517c2.06,0.561,4.1,1.348,5.998,2.327
		c7.43,3.831,10.616,10.564,9.095,18.789c-1.167,6.309-4.115,11.73-8.528,16.267c-11.556,11.879-25.846,15.593-41.905,13.409
		c-3.605-0.49-6.686-2.43-9.018-5.284c-0.766-0.938-1.216-2.158-1.682-3.301c-0.112-0.275,0.22-0.815,0.483-1.114
		c0.092-0.105,0.694,0.047,0.886,0.25c4.941,5.208,11.197,5.556,17.692,4.651c10.857-1.512,20.348-5.868,27.838-14.062
		c2.979-3.258,5.238-6.95,6.036-11.396c0.91-5.067-0.904-8.58-5.632-10.676c-4.963-2.2-10.211-2.378-15.492-1.897
		c-12.999,1.184-24.454,6.566-35.394,13.262c-5.58,3.415-10.84,7.264-14.968,12.415c-1.367,1.706-2.612,3.577-3.548,5.547
		c-3.043,6.405-2.444,12.48,2.321,17.869c1.817,2.055,3.856,3.945,5.967,5.702c4.691,3.905,9.491,7.679,14.396,11.627
		c4.691-2.569,9.651-5.27,14.587-8.015c0.454-0.253,0.724-0.817,1.13-1.179c2.38-2.123,4.722-4.294,7.193-6.307
		c0.863-0.703,2.02-1.105,3.102-1.469c4.472-1.506,7.436,0.582,7.587,5.303c0.04,1.244,0.006,2.491,0.006,3.778
		c0.252-0.122,0.693-0.534,1.063-0.479c1.089,0.162,2.349,0.255,3.151,0.877c0.518,0.402,0.628,1.753,0.441,2.568
		c-0.908,3.948-2.062,7.84-2.961,11.791c-0.526,2.314-0.738,4.7-1.091,7.053c0.196,0.072,0.392,0.145,0.588,0.217
		c0.287-0.403,0.65-0.772,0.851-1.214c4.532-9.977,9.066-19.952,13.539-29.955c0.566-1.265,0.708-2.715,1.206-4.018
		c0.221-0.577,0.788-1.366,1.284-1.435c2.157-0.299,4.356-0.568,6.519-0.457c1.725,0.089,2.099,0.952,1.493,2.581
		c-1.37,3.685-2.122,7.438-1.137,11.328c0.437,1.727,1.153,3.384,1.855,5.397c0.456-0.577,0.722-0.834,0.894-1.144
		c2.309-4.157,4.756-8.247,6.848-12.511c1.22-2.487,1.94-5.234,2.743-7.907c0.385-1.282,1.106-2.053,2.358-2.158
		c1.93-0.161,3.893-0.352,5.806-0.167c1.656,0.16,2.008,0.973,1.422,2.522c-1.391,3.682-2.2,7.462-1.14,11.321
		c0.692,2.518,1.861,4.904,2.855,7.449c4.588-2.172,9.072-3.251,13.797-3.303c5.942-0.066,11.477,1.221,16.072,5.185
		c4.193,3.617,6.575,8.129,5.431,13.822c-0.725,3.606-3.179,5.939-6.561,7.254c-0.467,0.182-1.094-0.045-1.646-0.083
		c0.29-0.446,0.48-1.034,0.884-1.316c5.234-3.653,5.892-8.914,1.683-13.738c-1.826-2.093-4.099-3.537-6.707-4.401
		c-6.46-2.141-12.968-2.287-19.493-0.263c-0.47,0.146-0.92,0.357-1.367,0.533c0.368,1.677,0.816,3.257,1.046,4.868
		c0.391,2.742-0.518,5.138-2.281,7.225c-2.853,3.376-6.553,5.408-10.763,6.491c-3.062,0.788-5.215-1.22-4.908-4.434
		c0.259-2.705,1.222-5.194,2.865-7.327c1.825-2.369,3.851-4.583,5.886-6.978c-0.715-1.653-1.661-3.535-2.344-5.508
		c-0.683-1.971-1.104-4.032-1.707-6.308c-0.333,0.574-0.561,0.97-0.792,1.363c-2.563,4.357-5.1,8.728-7.714,13.054
		c-0.462,0.764-0.598,1.342-0.242,2.191c1.082,2.579,1.62,5.279,1.181,8.077c-0.429,2.736-1.783,4.99-3.966,6.692
		c-3.459,2.697-7.41,4.114-11.788,4.333c-0.447,0.022-0.905-0.002-1.348-0.07c-2.588-0.399-3.538-2.303-2.024-4.442
		c1.618-2.285,3.489-4.39,5.24-6.581c1.594-1.996,3.199-3.984,4.74-6.021c0.286-0.378,0.54-1.067,0.389-1.442
		c-0.822-2.039-1.902-3.979-2.65-6.041c-0.727-2.005-1.162-4.116-1.819-6.521c-0.355,0.829-0.606,1.381-0.83,1.944
		c-3.584,8.99-7.835,17.661-12.681,26.031c-0.933,1.612-2.242,3.102-3.664,4.312c-2.247,1.913-4.973,1.17-5.839-1.653
		c-0.603-1.965-0.606-4.123-0.795-6.203c-0.071-0.785,0.087-1.592-0.044-2.466c-0.157,0.307-0.32,0.611-0.471,0.921
		c-1.486,3.059-2.906,6.152-4.478,9.166c-0.907,1.739-2.282,3.061-4.378,3.311c-2.443,0.291-4.293-0.644-5.576-2.737
		c-2.834-4.625-3.806-9.66-3.135-14.993c0.348-2.762,0.961-5.491,1.48-8.376c-2.753,1.58-5.497,3.156-8.287,4.757
		c2.478,6.004,2.477,12.01,0.622,18.019c-2.937,9.513-11.6,16.549-21.511,17.335c-2.302,0.183-4.695-0.209-6.987-0.648
		c-2.293-0.439-3.651-2.247-4.552-4.26c-2.453-5.476-1.492-10.733,2.004-15.281c2.222-2.892,5.075-5.43,8.035-7.591
		c3.704-2.704,7.806-4.865,11.744-7.248c0.629-0.381,1.297-0.697,2.197-1.176c-1.557-1.179-2.926-2.242-4.321-3.268
		c-4.922-3.62-9.972-7.079-14.732-10.9c-2.552-2.048-4.727-4.612-6.865-7.12c-2.307-2.706-3.544-6-4.396-9.43
		c0-0.902,0-1.805,0-2.707c0.366-1.399,0.654-2.823,1.111-4.191c2.035-6.086,5.758-11.096,10.295-15.496
		c12.413-12.037,27.438-19.427,43.865-24.175c3.242-0.937,6.663-1.255,10.001-1.859C93.204,37.459,96.111,37.459,99.019,37.459z
		 M58.964,119.802c-5.195,3.023-10.038,6.118-14.239,10.099c-2.597,2.461-4.457,5.391-5.037,9.002
		c-0.662,4.116,1.339,6.055,5.403,5.218c3.123-0.643,5.806-2.164,8.093-4.343C58.924,134.307,60.899,127.718,58.964,119.802z
		 M77.997,122.998c0.309,1.763,0.481,3.564,0.966,5.277c0.438,1.546,1.372,1.658,2.309,0.369c0.671-0.924,1.303-1.923,1.717-2.98
		c2.111-5.398,4.206-10.803,6.173-16.255c0.69-1.913,1.099-3.946,1.441-5.958c0.227-1.337-0.474-1.943-1.668-1.316
		c-1.595,0.837-3.291,1.849-4.374,3.232C80.544,110.499,78.253,116.346,77.997,122.998z M133.897,124.529
		c4.688-1.095,7.464-6.12,5.723-10.361C136.777,115.794,133.269,122.143,133.897,124.529z M119.305,120.889
		c-2.59,3.034-5.019,5.879-7.534,8.825C115.195,129.389,119.12,124.823,119.305,120.889z"/>
</g>
</svg>
