<svg version="1" xmlns="http://www.w3.org/2000/svg" width="200" height="200"><path fill="#FFF" d="M-444.887-445.892h883.456v685.466h-883.456z"/><circle fill-rule="evenodd" clip-rule="evenodd" fill="#66A3C6" cx="102" cy="98.756" r="80.542"/><path fill-rule="evenodd" clip-rule="evenodd" fill="#929292" d="M65.085 75.159v53.695s11.536 10.173 34.923 10.068c23.491-.105 38.803-10.068 38.803-10.068V75.159H65.085z"/><path fill-rule="evenodd" clip-rule="evenodd" fill="#D0D0D0" d="M65.085 118.786v13.424s15.102 9.978 35.132 10.068c23.491.105 38.593-10.068 38.593-10.068v-13.424s-15.102 10.068-38.593 10.277c-20.031.179-35.132-10.277-35.132-10.277zm0-43.627v16.78s11.536 10.173 34.923 10.068c23.491-.105 38.803-10.068 38.803-10.068v-16.78H65.085zm0 23.492v13.424s14.892 10.068 34.923 10.068c23.491 0 38.803-10.068 38.803-10.068V98.651s-15.312 10.068-38.803 10.277c-20.032.179-34.923-10.277-34.923-10.277z"/><path fill-rule="evenodd" clip-rule="evenodd" fill="#EEE" d="M100.269 63.183c-19.432 0-35.185 5.986-35.185 13.371 0 7.385 15.753 13.371 35.185 13.371s38.541-5.987 38.541-13.371c0-7.385-19.109-13.371-38.541-13.371z"/></svg>