<svg version="1" xmlns="http://www.w3.org/2000/svg" width="200" height="200"><path fill="#FFF" d="M-645.887-43.892h883.456v685.466h-883.456z"/><path fill="#156AC3" d="M63.623 92.685c-4.369.002-8.406-.904-12.256-2.643a30.204 30.204 0 0 1-17.734-29.079c.731-14.484 11.916-26.492 26.34-28.278 16.901-2.093 32.058 9.969 33.789 26.891.298 2.909.298 2.908-2.642 2.906-8.582-.005-17.165.018-25.747-.04-1.32-.009-1.704.357-1.695 1.693.059 8.949.035 17.899.031 26.848 0 .539-.053 1.076-.086 1.702z"/><path fill="#E83E33" d="M110.142 62.449c-.002-4.369.904-8.406 2.643-12.256a30.203 30.203 0 0 1 29.078-17.734c14.484.731 26.491 11.916 28.278 26.34 2.093 16.901-9.969 32.058-26.891 33.789-2.909.298-2.908.298-2.906-2.642.005-8.582-.018-17.165.04-25.747.009-1.321-.357-1.704-1.693-1.695-8.949.059-17.899.035-26.848.031-.538 0-1.075-.053-1.701-.086z"/><path fill="#F7C333" d="M93.859 137.551c.002 4.369-.904 8.406-2.643 12.256a30.204 30.204 0 0 1-29.079 17.734c-14.484-.731-26.492-11.916-28.278-26.34-2.093-16.901 9.969-32.058 26.891-33.789 2.909-.298 2.908-.298 2.906 2.642-.005 8.582.018 17.165-.04 25.747-.009 1.32.357 1.704 1.693 1.695 8.949-.06 17.899-.035 26.848-.031.538 0 1.075.053 1.702.086z"/><path fill="#478D37" d="M140.377 107.315c4.369-.002 8.406.904 12.256 2.643a30.203 30.203 0 0 1 17.734 29.078c-.731 14.484-11.916 26.491-26.34 28.278-16.901 2.093-32.058-9.969-33.789-26.891-.298-2.909-.298-2.908 2.642-2.906 8.582.005 17.165-.018 25.747.04 1.32.009 1.704-.357 1.695-1.693-.06-8.949-.035-17.899-.031-26.848 0-.537.053-1.075.086-1.701z"/></svg>