<?xml version="1.0" encoding="utf-8"?>
<!-- Generator: Adobe Illustrator 17.0.0, SVG Export Plug-In . SVG Version: 6.00 Build 0)  -->
<!DOCTYPE svg PUBLIC "-//W3C//DTD SVG 1.0//EN" "http://www.w3.org/TR/2001/REC-SVG-20010904/DTD/svg10.dtd">
<svg version="1.0" id="Layer_1" xmlns="http://www.w3.org/2000/svg" xmlns:xlink="http://www.w3.org/1999/xlink" x="0px" y="0px"
	 width="200px" height="200px" viewBox="0 0 200 200" enable-background="new 0 0 200 200" xml:space="preserve">
<rect x="-645.887" y="-244.892" fill="#FFFFFF" width="883.456" height="685.466"/>
<g id="IMhWts_1_">
	<g>
		<path fill="#F4AC36" d="M21.085,108.633c0.16-2.365,0.409-4.728,0.459-7.095c0.078-3.721,0.021-7.445,0.021-11.601
			c2.112,0.25,3.708,0.222,5.169,0.653c4.33,1.279,8.651,2.621,12.87,4.215c1.025,0.387,2.332,1.826,2.348,2.801
			c0.149,8.654,0.038,17.313-0.009,25.97c-0.001,0.215-0.145,0.429-0.322,0.922c-7.324-1.582-14.156-4.314-20.536-8.22
			C21.085,113.73,21.085,111.182,21.085,108.633z"/>
		<path fill="#F4AC36" d="M117.134,40.3c4.44,1.298,8.879,2.596,13.568,3.967c-7.966,7.359-21.578,7.306-29.739-0.049
			c4.249-1.348,8.299-2.633,12.348-3.918C114.585,40.3,115.86,40.3,117.134,40.3z"/>
		<path fill="#F4AC36" d="M165.875,40.3c4.045,1.289,8.089,2.579,12.37,3.943c-9.362,7.453-20.079,7.433-29.395-0.041
			c4.554-1.346,8.878-2.624,13.202-3.902C163.326,40.3,164.601,40.3,165.875,40.3z"/>
		<path fill="#F4AC36" d="M65.895,167.481c-5.892-2.297-11.818-4.516-17.641-6.976c-0.871-0.368-1.69-1.822-1.806-2.854
			c-0.582-5.196-1.021-10.414-1.312-15.635c-0.188-3.385-0.035-6.789-0.035-10.709c2.416,0.528,4.351,0.807,6.192,1.383
			c4.465,1.396,8.92,2.842,13.298,4.484c0.865,0.324,1.936,1.608,1.949,2.465c0.141,9.045,0.088,18.094,0.088,27.141
			C66.384,167.014,66.139,167.247,65.895,167.481z"/>
		<path fill="#F4AC36" d="M161.495,69.548c0,3.736,0.032,7.472-0.012,11.208c-0.026,2.232-0.894,3.03-2.98,2.316
			c-5.326-1.822-10.608-3.786-15.83-5.887c-0.768-0.309-1.556-1.666-1.577-2.557c-0.186-7.625-0.25-15.253-0.236-22.881
			c0.006-3.239,0.692-3.865,3.709-2.985c4.942,1.441,9.835,3.086,14.658,4.886c2.485,0.927,2.608,3.356,2.605,5.651
			c-0.004,3.416-0.001,6.832-0.001,10.249C161.719,69.548,161.607,69.548,161.495,69.548z"/>
		<path fill="#F4AC36" d="M69.723,89.314c7.168,0.958,13.462,3.029,19.27,6.485c0.53,0.315,0.961,1.25,0.977,1.908
			c0.187,7.794,0.306,15.59,0.398,23.386c0.03,2.512-1.032,3.602-3.39,2.796c-5.551-1.897-10.983-4.145-16.436-6.317
			c-0.385-0.153-0.783-0.853-0.785-1.301C69.712,107.391,69.723,98.51,69.723,89.314z"/>
		<path fill="#F4AC36" d="M94.3,48.291c4.397,1.355,8.943,2.691,13.446,4.159c5.895,1.923,5.921,1.968,5.963,8.293
			c0.047,7.137,0.011,14.274,0.011,21.783c-6.539-1.85-12.42-3.485-18.271-5.222c-0.487-0.144-1.096-0.971-1.1-1.484
			C94.282,66.768,94.3,57.715,94.3,48.291z"/>
		<path fill="#F4AC36" d="M166.091,84.097c-0.14-2.334-0.338-4.139-0.341-5.944c-0.013-6.839,0.109-13.679,0.023-20.517
			c-0.029-2.317,0.996-3.5,3.03-4.22c4.041-1.43,8.046-2.962,12.084-4.399c3.106-1.105,4.28-0.233,4.25,3.017
			c-0.07,7.554-0.16,15.109-0.16,22.664c0,1.68-0.583,2.412-2.23,2.994c-3.51,1.241-6.861,2.924-10.322,4.313
			C170.533,82.765,168.547,83.296,166.091,84.097z"/>
		<path fill="#F4AC36" d="M113.045,89.35c0.233,2.751,0.585,5.257,0.629,7.768c0.098,5.573,0.045,11.148,0.048,16.722
			c0.001,1.954-0.533,3.812-2.406,4.599c-4.75,1.997-9.575,3.817-14.401,5.626c-2.019,0.757-2.609-0.179-2.572-2.21
			c0.147-7.962,0.188-15.926,0.182-23.889c-0.001-1.449,0.299-2.323,1.796-2.849c4.719-1.66,9.384-3.474,14.082-5.192
			C111.123,89.662,111.912,89.59,113.045,89.35z"/>
		<path fill="#F4AC36" d="M90.069,131.951c0,6.799,0.185,13.239-0.044,19.664c-0.328,9.228,1.115,8.071-7.589,11.29
			c-3.241,1.198-6.603,2.073-9.926,3.04c-0.407,0.118-0.916-0.112-1.504-0.199c-0.071-0.589-0.191-1.119-0.191-1.649
			c0-7.486-0.002-14.972,0.039-22.458c0.017-3.123,0.868-4.293,3.808-5.277c4.064-1.36,8.143-2.677,12.232-3.963
			C87.631,132.166,88.443,132.17,90.069,131.951z"/>
		<path fill="#F4AC36" d="M135.597,48.52c0.428,9.18,0.86,17.911,1.187,26.646c0.022,0.59-0.615,1.504-1.18,1.77
			c-4.889,2.301-9.821,4.513-14.764,6.695c-1.457,0.644-2.155-0.21-2.16-1.557c-0.034-8.441-0.035-16.882,0.01-25.323
			c0.008-1.572,0.847-2.633,2.423-3.169C125.77,51.999,130.404,50.341,135.597,48.52z"/>
		<path fill="#F4AC36" d="M47.565,123.912c-0.15-4.536-0.362-8.957-0.425-13.38c-0.057-3.972,0.1-7.947,0.06-11.919
			c-0.019-1.906,0.714-3.279,2.452-3.945c4.066-1.558,8.148-3.083,12.269-4.486c2.105-0.717,2.431,0.832,2.455,2.393
			c0.082,5.483,0.128,10.966,0.18,16.449c0.019,1.987,0.266,4.016-0.063,5.945c-0.228,1.34-0.957,3.23-1.989,3.689
			c-4.471,1.988-9.134,3.546-13.734,5.239C48.502,123.997,48.167,123.912,47.565,123.912z"/>
		<path fill="#F4AC36" d="M83.695,128.43c-5.644,1.8-10.445,5.418-15.91,4.877c-5.035-0.498-9.883-2.877-15.124-4.525
			C58.299,123.007,75.962,122.859,83.695,128.43z"/>
		<path fill="#F4AC36" d="M28.896,86.91c4.241-6.667,22.791-6.88,30.118-0.203c-5.343,1.52-10.273,4.002-15.214,4.025
			C38.884,90.755,33.955,88.31,28.896,86.91z"/>
		<path fill="#F4AC36" d="M77.297,86.402c6.835-5.978,22.268-7.007,28.959-0.184C96.396,92.019,89.798,92.061,77.297,86.402z"/>
	</g>
</g>
</svg>
